<?xml version="1.0" encoding="UTF-8"?><svg xmlns="http://www.w3.org/2000/svg" xmlns:xlink="http://www.w3.org/1999/xlink" height="129.6" preserveAspectRatio="xMidYMid meet" version="1.0" viewBox="0.2 0.2 129.6 129.6" width="129.6" zoomAndPan="magnify"><g><linearGradient gradientUnits="userSpaceOnUse" id="a" x1="65" x2="65" xlink:actuate="onLoad" xlink:show="other" xlink:type="simple" xmlns:xlink="http://www.w3.org/1999/xlink" y1="83.298" y2="-4.278"><stop offset="0" stop-color="#64babc"/><stop offset=".982" stop-color="#038689"/></linearGradient><circle cx="65" cy="65" fill="url(#a)" r="64.8"/><linearGradient gradientUnits="userSpaceOnUse" id="b" x1="80.103" x2="80.103" xlink:actuate="onLoad" xlink:show="other" xlink:type="simple" xmlns:xlink="http://www.w3.org/1999/xlink" y1="36.028" y2="28.961"><stop offset=".004" stop-color="#e6e6e6"/><stop offset="1" stop-color="#f1f1f1"/></linearGradient><path d="M120.1,99c5.8-9.4,9.3-20.4,9.6-32.2l-16.6-12.6c-6.5-4.9-17.1-4.9-23.6,0L30.5,99H120.1z" fill="url(#b)"/><linearGradient gradientUnits="userSpaceOnUse" id="c" x1="36.515" x2="36.515" xlink:actuate="onLoad" xlink:show="other" xlink:type="simple" xmlns:xlink="http://www.w3.org/1999/xlink" y1="25.612" y2="18.582"><stop offset=".004" stop-color="#e6e6e6"/><stop offset="1" stop-color="#f1f1f1"/></linearGradient><path d="M13.8,43.6c-2.4-1.8-5.4-3-8.5-3.5c-3.2,7.7-5,16.1-5,24.9c0,8.2,1.5,16.1,4.3,23.3h68.2L13.8,43.6z" fill="url(#c)"/><g><g><g><linearGradient gradientTransform="matrix(.9999 .0159 -.0159 .9999 -10.099 8.964)" gradientUnits="userSpaceOnUse" id="d" x1="74.905" x2="74.905" xlink:actuate="onLoad" xlink:show="other" xlink:type="simple" xmlns:xlink="http://www.w3.org/1999/xlink" y1="148.019" y2="138.006"><stop offset="0" stop-color="#64babc"/><stop offset=".982" stop-color="#038689"/></linearGradient><path d="M62.7 80.3L62.5 91.7 64.5 91.8 64.7 80.4 73.1 80.5 70.4 72.5 71.3 72.5 69.4 67.2 70.5 67.2 64.2 48.5 57.2 67 58.3 67 56.4 72.3 57.2 72.3 54.2 80.2z" fill="url(#d)"/></g></g><g><g><linearGradient gradientTransform="matrix(.9999 .0159 -.0159 .9999 -10.099 8.964)" gradientUnits="userSpaceOnUse" id="e" x1="23.462" x2="23.462" xlink:actuate="onLoad" xlink:show="other" xlink:type="simple" xmlns:xlink="http://www.w3.org/1999/xlink" y1="139.846" y2="130.113"><stop offset="0" stop-color="#64babc"/><stop offset=".982" stop-color="#038689"/></linearGradient><path d="M11.2 71.6L11 84.6 13.4 84.7 13.6 71.6 23.5 71.8 20.3 62.3 21.3 62.3 19.2 56 20.5 56.1 13 34 4.8 55.8 6.1 55.8 3.7 62.1 4.7 62.1 1.2 71.4z" fill="url(#e)"/></g></g><g><g><linearGradient gradientTransform="matrix(.9999 .0159 -.0159 .9999 -10.099 8.964)" gradientUnits="userSpaceOnUse" id="f" x1="60.328" x2="60.328" xlink:actuate="onLoad" xlink:show="other" xlink:type="simple" xmlns:xlink="http://www.w3.org/1999/xlink" y1="114.966" y2="22.063"><stop offset="0" stop-color="#64babc"/><stop offset=".982" stop-color="#038689"/></linearGradient><path d="M47.9 75.1L47.7 89 50.3 89 50.5 75.1 61.2 75.3 57.8 65.1 58.8 65.1 56.5 58.4 57.9 58.4 49.8 34.7 41 58.1 42.4 58.1 39.9 64.8 40.9 64.9 37.2 74.9z" fill="url(#f)"/></g></g><g><g><linearGradient gradientTransform="matrix(.9999 .0159 -.0159 .9999 -10.099 8.964)" gradientUnits="userSpaceOnUse" id="g" x1="39.559" x2="39.559" xlink:actuate="onLoad" xlink:show="other" xlink:type="simple" xmlns:xlink="http://www.w3.org/1999/xlink" y1="128.081" y2="-34.028"><stop offset="0" stop-color="#64babc"/><stop offset=".982" stop-color="#038689"/></linearGradient><path d="M26.7 70.4L26.5 88.3 30 88.3 30.2 70.5 44.6 70.7 40 57 41.4 57.1 38.3 48 40.2 48 29.3 16.1 17.5 47.6 19.4 47.7 16 56.7 17.4 56.7 12.3 70.2z" fill="url(#g)"/></g></g></g><g><g><g><linearGradient gradientTransform="matrix(.9999 .0159 -.0159 .9999 -10.099 8.964)" gradientUnits="userSpaceOnUse" id="h" x1="127.77" x2="127.77" xlink:actuate="onLoad" xlink:show="other" xlink:type="simple" xmlns:xlink="http://www.w3.org/1999/xlink" y1="122.186" y2="116.71"><stop offset="0" stop-color="#64babc"/><stop offset=".982" stop-color="#038689"/></linearGradient><path d="M115.7 90.6L115.6 96.8 117 96.9 117.1 90.6 122.9 90.7 121 86.3 121.6 86.4 120.3 83.4 121.1 83.4 116.7 73.2 111.9 83.3 112.7 83.3 111.3 86.2 111.9 86.2 109.9 90.5z" fill="url(#h)"/></g></g><g><g><linearGradient gradientTransform="matrix(.9999 .0159 -.0159 .9999 -10.099 8.964)" gradientUnits="userSpaceOnUse" id="i" x1="90.582" x2="90.582" xlink:actuate="onLoad" xlink:show="other" xlink:type="simple" xmlns:xlink="http://www.w3.org/1999/xlink" y1="113.528" y2="108.206"><stop offset="0" stop-color="#64babc"/><stop offset=".982" stop-color="#038689"/></linearGradient><path d="M78.5 81.5L78.4 88.6 80.1 88.6 80.2 81.5 87 81.6 84.8 76.4 85.5 76.5 84 73 84.9 73 79.7 61 74.1 72.9 75 72.9 73.4 76.3 74.1 76.3 71.7 81.4z" fill="url(#i)"/></g></g><g><g><linearGradient gradientTransform="matrix(.9999 .0159 -.0159 .9999 -10.099 8.964)" gradientUnits="userSpaceOnUse" id="j" x1="116.257" x2="116.257" xlink:actuate="onLoad" xlink:show="other" xlink:type="simple" xmlns:xlink="http://www.w3.org/1999/xlink" y1="102.376" y2="51.572"><stop offset="0" stop-color="#64babc"/><stop offset=".982" stop-color="#038689"/></linearGradient><path d="M104.1 85.9L103.9 93.5 105.7 93.6 105.8 86 113.2 86.1 110.8 80.5 111.5 80.5 109.9 76.8 110.9 76.8 105.3 63.8 99.3 76.6 100.3 76.7 98.5 80.3 99.3 80.3 96.7 85.8z" fill="url(#j)"/></g></g><g><g><linearGradient gradientTransform="matrix(.9999 .0159 -.0159 .9999 -10.099 8.964)" gradientUnits="userSpaceOnUse" id="k" x1="102.375" x2="102.375" xlink:actuate="onLoad" xlink:show="other" xlink:type="simple" xmlns:xlink="http://www.w3.org/1999/xlink" y1="109.439" y2="20.792"><stop offset="0" stop-color="#64babc"/><stop offset=".982" stop-color="#038689"/></linearGradient><path d="M89.9 83.2L89.7 93 92.2 93 92.3 83.3 102.2 83.4 99 76 100 76 97.8 71 99.1 71 91.6 53.6 83.5 70.8 84.8 70.8 82.5 75.7 83.5 75.7 80 83.1z" fill="url(#k)"/></g></g></g><g><g><g><g><g><g><g><g><g><g><linearGradient gradientUnits="userSpaceOnUse" id="l" x1="59.572" x2="60.067" xlink:actuate="onLoad" xlink:show="other" xlink:type="simple" xmlns:xlink="http://www.w3.org/1999/xlink" y1="158.854" y2="143.526"><stop offset=".004" stop-color="#e6e6e6"/><stop offset="1" stop-color="#f1f1f1"/></linearGradient><path d="M122,95.8c-11,20.2-32.4,34-57,34c-31,0-56.9-21.8-63.2-50.8 C2.4,74.5,122.6,91.3,122,95.8z" fill="url(#l)"/></g></g></g></g></g></g></g></g></g></g><g><g><linearGradient gradientUnits="userSpaceOnUse" id="m" x1="61.252" x2="61.252" xlink:actuate="onLoad" xlink:show="other" xlink:type="simple" xmlns:xlink="http://www.w3.org/1999/xlink" y1="158.138" y2="69.939"><stop offset="0" stop-color="#383647"/><stop offset=".993" stop-color="#272535"/></linearGradient><path d="M72.3,83.1l-25.9-1.2c-1.7,7.7,2.7,14.9,5.7,23.7l-0.4,22.7c2,0.4,4.1,0.8,6.2,1l4-19.8 c0.4-2,0.5-4.1,0.3-6.1l-0.7-7.7l4.4,11.5l1.9,22.5c2.2-0.1,4.3-0.3,6.4-0.6l2.2-18.7c0.2-2.1,0.2-4.3-0.2-6.4L72.3,83.1z" fill="url(#m)"/><g><linearGradient gradientUnits="userSpaceOnUse" id="n" x1="61.731" x2="61.731" xlink:actuate="onLoad" xlink:show="other" xlink:type="simple" xmlns:xlink="http://www.w3.org/1999/xlink" y1="65.656" y2="26.291"><stop offset="0" stop-color="#383647"/><stop offset=".993" stop-color="#272535"/></linearGradient><ellipse cx="61.7" cy="40.2" fill="url(#n)" rx="5.9" ry="8.9"/></g><g><linearGradient gradientUnits="userSpaceOnUse" id="o" x1="64.248" x2="64.248" xlink:actuate="onLoad" xlink:show="other" xlink:type="simple" xmlns:xlink="http://www.w3.org/1999/xlink" y1="117.497" y2="16.048"><stop offset="0" stop-color="#fbaf28"/><stop offset=".996" stop-color="#f4832c"/></linearGradient><path d="M85.7,73.3c-1.5-0.2-4.2-1.4-6.3-2.4c-1.8-0.9-3.2-2.3-4-4.1l-4.1-8.9c0.8,8.5,1.1,16.8,1,25.3 c-8.9,3.1-26.7,1.9-26.7-0.5l1.6-12.3c-2,3.7-9.3,2.6-7-5.8c0,0,2.9-10.7,4.6-16.8c0.8-2.9,3.1-5.1,5.9-5.7 c4.2-1,11.1-1.8,20.2-0.1c1.7,0.3,3.1,1.4,4,2.9c4.1,6.3,5.9,12.1,8,19.6l4.1,2C89.5,68.2,89.6,70.5,85.7,73.3z" fill="url(#o)"/></g><g><linearGradient gradientUnits="userSpaceOnUse" id="p" x1="61.377" x2="61.377" xlink:actuate="onLoad" xlink:show="other" xlink:type="simple" xmlns:xlink="http://www.w3.org/1999/xlink" y1="50.541" y2="42.404"><stop offset="0" stop-color="#fbd2c3"/><stop offset=".996" stop-color="#f8af9b"/></linearGradient><path d="M62.5,45.7h-2.3c-1.3,0-2.3-1-2.3-2.3v-9c0-1.3,1-2.3,2.3-2.3h2.3c1.3,0,2.3,1,2.3,2.3v9 C64.9,44.7,63.8,45.7,62.5,45.7z" fill="url(#p)"/></g><g><linearGradient gradientUnits="userSpaceOnUse" id="q" x1="82.903" x2="90.114" xlink:actuate="onLoad" xlink:show="other" xlink:type="simple" xmlns:xlink="http://www.w3.org/1999/xlink" y1="68.699" y2="68.699"><stop offset="0" stop-color="#fbd2c3"/><stop offset=".996" stop-color="#f8af9b"/></linearGradient><path d="M85.7,72.7c-1.2-0.1-2-0.3-2.6-1.5c-0.8-1.6,0.5-1.9,1-2.8c-0.1-0.6,0.1-1.3,0.4-1.9 c0.4-0.6,0.9-1,1.4-1.4c0.3-0.3,0.7-0.5,1.2-0.5c0.7,0.1,0.9,1.1,0.3,1.5c0.6-0.3,1.3-0.7,1.9-0.3c0.6,0.3,0.7,1.1,0.7,1.8 C90.2,71.2,89.2,72.9,85.7,72.7z" fill="url(#q)"/></g><g><linearGradient gradientTransform="matrix(1 0 .09567 .9486 -306.713 164.797)" gradientUnits="userSpaceOnUse" id="r" x1="375.824" x2="386.205" xlink:actuate="onLoad" xlink:show="other" xlink:type="simple" xmlns:xlink="http://www.w3.org/1999/xlink" y1="-139.003" y2="-139.003"><stop offset="0" stop-color="#fbd2c3"/><stop offset=".996" stop-color="#f8af9b"/></linearGradient><path d="M66.2,32.9c0.4,4-1.6,7.2-4.5,7.2s-5.5-3.2-5.9-7.2c-0.4-4,1.6-7.2,4.5-7.2 C63.1,25.7,65.8,29,66.2,32.9z" fill="url(#r)"/></g><g><linearGradient gradientUnits="userSpaceOnUse" id="s" x1="66.245" x2="66.245" xlink:actuate="onLoad" xlink:show="other" xlink:type="simple" xmlns:xlink="http://www.w3.org/1999/xlink" y1="65.656" y2="26.291"><stop offset="0" stop-color="#383647"/><stop offset=".993" stop-color="#272535"/></linearGradient><path d="M67.2,56.8c-2.1-3.5-2.1-7.9-1.8-12c0.4-4.1,1.1-8.3,0.3-12.3c-0.2-0.9-0.6-2.6-1.5-3.6 c0.6,0.1,1.3,0.1,1.7,0.3c0.6,0.4,0.8,1.2,1,1.9C68.6,39.6,68.7,48.3,67.2,56.8z" fill="url(#s)"/></g><g><linearGradient gradientUnits="userSpaceOnUse" id="t" x1="56.141" x2="56.141" xlink:actuate="onLoad" xlink:show="other" xlink:type="simple" xmlns:xlink="http://www.w3.org/1999/xlink" y1="65.656" y2="26.291"><stop offset="0" stop-color="#383647"/><stop offset=".993" stop-color="#272535"/></linearGradient><path d="M57.7,29.9h-1.1c-1.4,1.1-2.1,1.6-2.4,4.8c-0.9,8.1,2.3,16.5,0.8,24.6 C62.3,51.3,54.9,37.1,57.7,29.9z" fill="url(#t)"/></g><g><g><linearGradient gradientTransform="rotate(-11.008 -715.882 3065.472) skewX(.006)" gradientUnits="userSpaceOnUse" id="u" x1="626.755" x2="626.755" xlink:actuate="onLoad" xlink:show="other" xlink:type="simple" xmlns:xlink="http://www.w3.org/1999/xlink" y1="218.498" y2="223.618"><stop offset="0" stop-color="#ed5b5a"/><stop offset=".993" stop-color="#e24026"/></linearGradient><path d="M63.9,22.7c-0.2,2-1.9,2.6-3.8,2.4c-2-0.2-3.5-1.1-3.3-3.1c0.2-2,1.9-3.4,3.9-3.2 C62.6,19,64.1,20.7,63.9,22.7z" fill="url(#u)"/></g><g><linearGradient gradientUnits="userSpaceOnUse" id="v" x1="60.047" x2="60.047" xlink:actuate="onLoad" xlink:show="other" xlink:type="simple" xmlns:xlink="http://www.w3.org/1999/xlink" y1="16.463" y2="40.613"><stop offset="0" stop-color="#ed5b5a"/><stop offset=".993" stop-color="#e24026"/></linearGradient><path d="M67.1,31.6c-4.6-5.2-11.5-1.2-13,3.3c-0.8-1-1-2.3-1.1-3.6c-0.6-11.1,10.9-11.4,13.3-4.5 C66.9,28.3,67.1,30,67.1,31.6z" fill="url(#v)"/></g></g></g><g><g><g id="change1_2"><path d="M86.9,73.2c-0.1,28.7-0.7,44.7,0.7,51c1.4-6.3,1-24.2,0.8-51H86.9z" fill="#C6CCCF"/></g></g><g><g><linearGradient gradientUnits="userSpaceOnUse" id="w" x1="87.684" x2="87.684" xlink:actuate="onLoad" xlink:show="other" xlink:type="simple" xmlns:xlink="http://www.w3.org/1999/xlink" y1="72.114" y2="67.128"><stop offset="0" stop-color="#383647"/><stop offset=".993" stop-color="#272535"/></linearGradient><path d="M86.6 63.2H88.69999999999999V73.4H86.6z" fill="url(#w)"/></g><g><linearGradient gradientUnits="userSpaceOnUse" id="x" x1="87.686" x2="87.686" xlink:actuate="onLoad" xlink:show="other" xlink:type="simple" xmlns:xlink="http://www.w3.org/1999/xlink" y1="61.361" y2="68.849"><stop offset="0" stop-color="#383647"/><stop offset=".993" stop-color="#272535"/></linearGradient><path d="M89.4,63.4l-0.7,0.7h-2.1l-0.7-0.7c-0.4-0.4-0.4-1.1,0.1-1.4c0.9-0.6,2.5-0.6,3.4,0 C89.8,62.3,89.8,63,89.4,63.4z" fill="url(#x)"/></g></g></g><g><linearGradient gradientUnits="userSpaceOnUse" id="y" x1="85.458" x2="90.257" xlink:actuate="onLoad" xlink:show="other" xlink:type="simple" xmlns:xlink="http://www.w3.org/1999/xlink" y1="68.562" y2="68.562"><stop offset="0" stop-color="#fbd2c3"/><stop offset=".996" stop-color="#f8af9b"/></linearGradient><path d="M90.2,69.7c0,0.4-0.1,0.7-0.3,1.1c-0.3,0.6-1.1,0.9-1.7,0.9c-0.7,0-1.4-0.2-1.9-0.7 c-0.5-0.5-0.8-1.2-0.8-1.9c0.1-0.7,0.5-1.3,1-1.8c0.4-0.5,0.9-0.9,1.4-1.3c0.4-0.3,0.8-0.5,1.3-0.5c0.2,0,0.4,0.1,0.6,0.2 c0.3,0.3,0.3,0.7,0.4,1.1C90.2,67.7,90.3,68.7,90.2,69.7z" fill="url(#y)"/></g><g><g><linearGradient gradientTransform="matrix(-1 0 0 1 -1586.556 0)" gradientUnits="userSpaceOnUse" id="z" x1="-1634.199" x2="-1626.989" xlink:actuate="onLoad" xlink:show="other" xlink:type="simple" xmlns:xlink="http://www.w3.org/1999/xlink" y1="68.193" y2="68.193"><stop offset="0" stop-color="#fbd2c3"/><stop offset=".996" stop-color="#f8af9b"/></linearGradient><path d="M44.8,72.2c1.2-0.1,2-0.3,2.6-1.5c0.8-1.6-0.5-1.9-1-2.8c0.1-0.6-0.1-1.3-0.4-1.9 c-0.4-0.6-0.9-1-1.4-1.4c-0.3-0.3-0.7-0.5-1.2-0.5c-0.7,0.1-0.9,1.1-0.3,1.5c-0.6-0.3-1.3-0.7-1.9-0.3c-0.6,0.3-0.7,1.1-0.7,1.8 C40.3,70.7,41.3,72.4,44.8,72.2z" fill="url(#z)"/></g><g><g><g id="change1_1"><path d="M43.6,72.7c0.1,28.7,0.7,44.8-0.7,51.1c-1.4-6.3-1-24.3-0.8-51.1H43.6z" fill="#C6CCCF"/></g></g><g><g><linearGradient gradientTransform="matrix(-1 0 0 1 -1586.556 0)" gradientUnits="userSpaceOnUse" id="A" x1="-1629.418" x2="-1629.418" xlink:actuate="onLoad" xlink:show="other" xlink:type="simple" xmlns:xlink="http://www.w3.org/1999/xlink" y1="71.609" y2="66.622"><stop offset="0" stop-color="#383647"/><stop offset=".993" stop-color="#272535"/></linearGradient><path d="M41.8 62.7H43.9V72.9H41.8z" fill="url(#A)"/></g><g><linearGradient gradientTransform="matrix(-1 0 0 1 -1586.556 0)" gradientUnits="userSpaceOnUse" id="B" x1="-1629.416" x2="-1629.416" xlink:actuate="onLoad" xlink:show="other" xlink:type="simple" xmlns:xlink="http://www.w3.org/1999/xlink" y1="60.856" y2="68.344"><stop offset="0" stop-color="#383647"/><stop offset=".993" stop-color="#272535"/></linearGradient><path d="M41.1,62.9l0.7,0.7h2.1l0.7-0.7c0.4-0.4,0.4-1.1-0.1-1.4c-0.9-0.6-2.5-0.6-3.4,0 C40.7,61.8,40.7,62.5,41.1,62.9z" fill="url(#B)"/></g></g></g><g><linearGradient gradientTransform="matrix(-1 0 0 1 -1586.556 0)" gradientUnits="userSpaceOnUse" id="C" x1="-1631.644" x2="-1626.845" xlink:actuate="onLoad" xlink:show="other" xlink:type="simple" xmlns:xlink="http://www.w3.org/1999/xlink" y1="68.056" y2="68.056"><stop offset="0" stop-color="#fbd2c3"/><stop offset=".996" stop-color="#f8af9b"/></linearGradient><path d="M40.3,69.2c0,0.4,0.1,0.7,0.3,1.1c0.3,0.6,1.1,0.9,1.7,0.9c0.7,0,1.4-0.2,1.9-0.7 c0.5-0.5,0.8-1.2,0.8-1.9c-0.1-0.7-0.5-1.3-1-1.8c-0.4-0.5-0.9-0.9-1.4-1.3c-0.4-0.3-0.8-0.5-1.3-0.5c-0.2,0-0.4,0.1-0.6,0.2 c-0.3,0.3-0.3,0.7-0.4,1.1C40.3,67.2,40.2,68.2,40.3,69.2z" fill="url(#C)"/></g></g></g></g></svg>