<?xml version="1.0" encoding="UTF-8"?><svg xmlns="http://www.w3.org/2000/svg" xmlns:xlink="http://www.w3.org/1999/xlink" height="131.1" preserveAspectRatio="xMidYMid meet" version="1.0" viewBox="0.2 0.2 129.6 131.1" width="129.6" zoomAndPan="magnify"><g><linearGradient gradientUnits="userSpaceOnUse" id="a" x1="65" x2="65" xlink:actuate="onLoad" xlink:show="other" xlink:type="simple" xmlns:xlink="http://www.w3.org/1999/xlink" y1="86.998" y2="3.511"><stop offset="0" stop-color="#64babc"/><stop offset=".982" stop-color="#038689"/></linearGradient><circle cx="65" cy="65" fill="url(#a)" r="64.8"/><linearGradient gradientUnits="userSpaceOnUse" id="b" x1=".5" x2="73.95" xlink:actuate="onLoad" xlink:show="other" xlink:type="simple" xmlns:xlink="http://www.w3.org/1999/xlink" y1="72.548" y2="72.548"><stop offset="0" stop-color="#e0e0e0"/><stop offset="1" stop-color="#f1f1f1"/></linearGradient><path d="M0.5,70.5c0.9,10.7,4.4,20.6,9.8,29.1L74,97.3L43.6,51.6c-5.7-8.5-17.3-8.1-25.9,1L0.5,70.5z" fill="url(#b)"/><linearGradient gradientUnits="userSpaceOnUse" id="c" x1="124.371" x2="134.471" xlink:actuate="onLoad" xlink:show="other" xlink:type="simple" xmlns:xlink="http://www.w3.org/1999/xlink" y1="55.613" y2="52.189"><stop offset=".004" stop-color="#e6e6e6"/><stop offset="1" stop-color="#f1f1f1"/></linearGradient><path d="M101.7,11.7c-16,6.9-21.6,28.7-19.5,46c2.3,18.7,12.4,36.8,24.9,52.4c0.6,0.8,1.3,1.6,1.9,2.4 c12.7-11.8,20.7-28.7,20.7-47.4C129.8,42.9,118.6,23.4,101.7,11.7z" fill="url(#c)"/><g><g><g><g><linearGradient gradientTransform="matrix(-.9999 .0159 .0159 .9999 -1405.018 15.947)" gradientUnits="userSpaceOnUse" id="d" x1="-1413.681" x2="-1413.681" xlink:actuate="onLoad" xlink:show="other" xlink:type="simple" xmlns:xlink="http://www.w3.org/1999/xlink" y1="135.414" y2="130.753"><stop offset="0" stop-color="#64babc"/><stop offset=".982" stop-color="#038689"/></linearGradient><path d="M10.7 92.7L10.7 98 9.5 98 9.5 92.7 4.5 92.8 6.1 89 5.6 89 6.7 86.5 6.1 86.5 9.8 77.8 13.9 86.4 13.2 86.4 14.4 88.9 13.9 88.9 15.6 92.6z" fill="url(#d)"/></g></g><g><g><linearGradient gradientTransform="matrix(-.9999 .0159 .0159 .9999 -1405.018 15.947)" gradientUnits="userSpaceOnUse" id="e" x1="-1443.897" x2="-1443.897" xlink:actuate="onLoad" xlink:show="other" xlink:type="simple" xmlns:xlink="http://www.w3.org/1999/xlink" y1="117.218" y2="112.688"><stop offset="0" stop-color="#64babc"/><stop offset=".982" stop-color="#038689"/></linearGradient><path d="M40.7 74.1L40.8 80.1 39.4 80.2 39.3 74.1 33.4 74.2 35.3 69.8 34.8 69.8 36 66.9 35.3 66.9 39.7 56.6 44.5 66.7 43.7 66.7 45.1 69.6 44.5 69.6 46.5 74z" fill="url(#e)"/></g></g><g><g><linearGradient gradientTransform="matrix(-.9999 .0159 .0159 .9999 -1405.018 15.947)" gradientUnits="userSpaceOnUse" id="f" x1="-1422.07" x2="-1422.07" xlink:actuate="onLoad" xlink:show="other" xlink:type="simple" xmlns:xlink="http://www.w3.org/1999/xlink" y1="117.984" y2="74.743"><stop offset="0" stop-color="#64babc"/><stop offset=".982" stop-color="#038689"/></linearGradient><path d="M19.1 88.1L19.2 94.6 17.7 94.6 17.6 88.2 11.3 88.3 13.4 83.5 12.8 83.5 14.1 80.4 13.3 80.4 18.1 69.3 23.2 80.2 22.4 80.2 23.8 83.4 23.2 83.4 25.4 88z" fill="url(#f)"/></g></g><g><g><linearGradient gradientTransform="matrix(-.9999 .0159 .0159 .9999 -1405.018 15.947)" gradientUnits="userSpaceOnUse" id="g" x1="-1431.129" x2="-1431.129" xlink:actuate="onLoad" xlink:show="other" xlink:type="simple" xmlns:xlink="http://www.w3.org/1999/xlink" y1="118.101" y2="42.648"><stop offset="0" stop-color="#64babc"/><stop offset=".982" stop-color="#038689"/></linearGradient><path d="M28.3 80L28.5 88.3 26.4 88.3 26.3 80 17.9 80.2 20.6 73.8 19.8 73.8 21.6 69.6 20.5 69.6 26.9 54.7 33.8 69.4 32.7 69.4 34.6 73.6 33.8 73.6 36.8 79.9z" fill="url(#g)"/></g></g></g></g><linearGradient gradientUnits="userSpaceOnUse" id="h" x1="23.437" x2="120.128" xlink:actuate="onLoad" xlink:show="other" xlink:type="simple" xmlns:xlink="http://www.w3.org/1999/xlink" y1="115.971" y2="50.464"><stop offset=".004" stop-color="#e6e6e6"/><stop offset="1" stop-color="#f1f1f1"/></linearGradient><path d="M65,129.8c30.4,0,55.9-21,62.9-49.2c-5.1-3.9-9.4-8.6-11-14.4c-1.4-5.1-0.5-10.3-1.1-15.4 c-0.6-5.2-3.7-11.2-8.9-12.5c-3.7-0.9-7.6,0.8-11-1.1c-4.3-2.5-4-9-1.1-12.2c2.9-3.2,7.4-4.7,10.4-7.9c0.5-0.5,0.9-1.1,1.2-1.7 c-2.5-2-5.1-3.9-7.8-5.6c-0.1,0.1-0.2,0.1-0.3,0.2c-42,26.8-38.5,65.9-89.8,86.9C19.7,116.5,40.8,129.8,65,129.8z" fill="url(#h)"/><g><g><g><g id="change1_1"><path d="M92.4,61.8c-0.1,29.5-0.7,45.8,0.8,52.2c1.5-6.5,1-24.8,0.8-52.2H92.4z" fill="#C6CCCF"/></g></g><g><g><linearGradient gradientUnits="userSpaceOnUse" id="i" x1="93.211" x2="93.211" xlink:actuate="onLoad" xlink:show="other" xlink:type="simple" xmlns:xlink="http://www.w3.org/1999/xlink" y1="79.265" y2="67.587"><stop offset="0" stop-color="#ed5b5a"/><stop offset=".993" stop-color="#e24026"/></linearGradient><path d="M92.1 51.6H94.3V64.4H92.1z" fill="url(#i)"/></g><g><linearGradient gradientUnits="userSpaceOnUse" id="j" x1="93.214" x2="93.214" xlink:actuate="onLoad" xlink:show="other" xlink:type="simple" xmlns:xlink="http://www.w3.org/1999/xlink" y1="49.623" y2="57.294"><stop offset="0" stop-color="#383647"/><stop offset=".993" stop-color="#272535"/></linearGradient><path d="M95,51.7l-0.7,0.7h-2.2l-0.7-0.7c-0.5-0.4-0.4-1.1,0.1-1.5c0.9-0.6,2.6-0.6,3.4,0 C95.4,50.6,95.4,51.3,95,51.7z" fill="url(#j)"/></g></g></g><g><linearGradient gradientTransform="matrix(1 0 -.3612 .8137 1200.127 618.815)" gradientUnits="userSpaceOnUse" id="k" x1="-1359.417" x2="-1357.092" xlink:actuate="onLoad" xlink:show="other" xlink:type="simple" xmlns:xlink="http://www.w3.org/1999/xlink" y1="-696.725" y2="-685.237"><stop offset="0" stop-color="#383647"/><stop offset=".993" stop-color="#272535"/></linearGradient><path d="M91.7,60.3c-1.1-1.8-2.8-3.1-5.1-3.7c0.2-0.2,1.4-2.2,2.6-4.3l5.6,1.7c0,0,0.9,0.5,1.1,0.9 C97.5,57.2,93.1,62.6,91.7,60.3z" fill="url(#k)"/></g><g><g><g><linearGradient gradientUnits="userSpaceOnUse" id="l" x1="65.491" x2="65.491" xlink:actuate="onLoad" xlink:show="other" xlink:type="simple" xmlns:xlink="http://www.w3.org/1999/xlink" y1="34.918" y2="18.721"><stop offset="0" stop-color="#fbd2c3"/><stop offset=".996" stop-color="#f8af9b"/></linearGradient><path d="M69.1,31.9c0.3-1.7,0.2-7.7,0.2-7.7h-7.6c0,0-0.2,5.9,0.2,7.7H69.1z" fill="url(#l)"/></g><g><linearGradient gradientUnits="userSpaceOnUse" id="m" x1="65.209" x2="65.209" xlink:actuate="onLoad" xlink:show="other" xlink:type="simple" xmlns:xlink="http://www.w3.org/1999/xlink" y1="42.554" y2="41.303"><stop offset="0" stop-color="#fbaf28"/><stop offset=".996" stop-color="#f4832c"/></linearGradient><path d="M70.1,32.8c0,1.9-2.2,3.4-4.9,3.4c-2.7,0-4.9-1.5-4.9-3.4c0-2.9,2-3.4,4.8-3.4 C67.8,29.5,70.1,30,70.1,32.8z" fill="url(#m)"/></g><g><linearGradient gradientTransform="matrix(.9766 -.09365 0 1 -131.804 -527.214)" gradientUnits="userSpaceOnUse" id="n" x1="201.736" x2="201.736" xlink:actuate="onLoad" xlink:show="other" xlink:type="simple" xmlns:xlink="http://www.w3.org/1999/xlink" y1="575.181" y2="561.181"><stop offset="0" stop-color="#383647"/><stop offset=".993" stop-color="#272535"/></linearGradient><path d="M69.7,27.2c-1.1,2.3-7.8,2.6-8.7,0.8C52.2,11.8,78,10.1,69.7,27.2z" fill="url(#n)"/></g></g><g><g><linearGradient gradientUnits="userSpaceOnUse" id="o" x1="39.755" x2="45.582" xlink:actuate="onLoad" xlink:show="other" xlink:type="simple" xmlns:xlink="http://www.w3.org/1999/xlink" y1="136.528" y2="130.701"><stop offset="0" stop-color="#fcdebd"/><stop offset=".986" stop-color="#e09183"/></linearGradient><path d="M52.2,120.6c-3.7-1.5-5.5-1.1,6.3-6.7c6.7-3.9,12.6-8.4,17.5-13.4c7-8.3,6.8-7.6,9.8-7.5 c2.6,0,4.9-0.7-2.8,8.2c-5,5.4-10.6,10.4-16.6,14.9C56.6,123.1,55.6,121.7,52.2,120.6z" fill="url(#o)"/></g><g><linearGradient gradientUnits="userSpaceOnUse" id="p" x1="45.745" x2="51.572" xlink:actuate="onLoad" xlink:show="other" xlink:type="simple" xmlns:xlink="http://www.w3.org/1999/xlink" y1="142.519" y2="136.692"><stop offset="0" stop-color="#fcdebd"/><stop offset=".986" stop-color="#e09183"/></linearGradient><path d="M55.9,128.8c-3.7-1.5-5.5-1.1,6.3-6.7c6.7-3.9,12.6-8.4,17.5-13.4c7-8.3,6.8-7.6,9.8-7.5 c2.6,0,4.9-0.7-2.8,8.2c-5,5.4-10.6,10.4-16.6,14.9C60.3,131.3,59.3,129.9,55.9,128.8z" fill="url(#p)"/></g><g><linearGradient gradientUnits="userSpaceOnUse" id="q" x1="70.92" x2="80.401" xlink:actuate="onLoad" xlink:show="other" xlink:type="simple" xmlns:xlink="http://www.w3.org/1999/xlink" y1="116.192" y2="116.192"><stop offset=".004" stop-color="#e6e6e6"/><stop offset="1" stop-color="#f1f1f1"/></linearGradient><path d="M80.3,113.9c-1.4,2-4.4,4.9-6.5,5.5c-1.1,0.3-2-0.4-2.3-1.2c-1.3-3.8-0.7-2,3.2-4.3 c3.1,0.1,4.3-1.2,5.2-1C80.4,113.1,80.5,113.6,80.3,113.9z" fill="url(#q)"/></g><g><linearGradient gradientUnits="userSpaceOnUse" id="r" x1="64.443" x2="73.924" xlink:actuate="onLoad" xlink:show="other" xlink:type="simple" xmlns:xlink="http://www.w3.org/1999/xlink" y1="109.819" y2="109.819"><stop offset=".004" stop-color="#e6e6e6"/><stop offset="1" stop-color="#f1f1f1"/></linearGradient><path d="M73.8,107.6c-1.4,2-4.4,4.9-6.5,5.5c-1.1,0.3-2-0.4-2.3-1.2c-1.3-3.8-0.7-2,3.2-4.3 c3.1,0.1,4.3-1.2,5.2-1C73.9,106.7,74.1,107.2,73.8,107.6z" fill="url(#r)"/></g><g><g><linearGradient gradientUnits="userSpaceOnUse" id="s" x1="46.724" x2="64.551" xlink:actuate="onLoad" xlink:show="other" xlink:type="simple" xmlns:xlink="http://www.w3.org/1999/xlink" y1="88.678" y2="85.328"><stop offset="0" stop-color="#383647"/><stop offset=".993" stop-color="#272535"/></linearGradient><path d="M68.7,108.9c-1.3,1.3-3.1,1.9-5.2,2c-2-6.3-4.1-12.9-6.3-19.8c-2.8-8.8-5.7-18.2-6.9-28.4 L64,62.8C67.7,79.4,69.2,94.9,68.7,108.9z" fill="url(#s)"/></g><g><linearGradient gradientUnits="userSpaceOnUse" id="t" x1="71.213" x2="109.021" xlink:actuate="onLoad" xlink:show="other" xlink:type="simple" xmlns:xlink="http://www.w3.org/1999/xlink" y1="90.651" y2="88.857"><stop offset="0" stop-color="#383647"/><stop offset=".993" stop-color="#272535"/></linearGradient><path d="M75.4,115.5c-1,0.9-2.6,1-4.1,1.1c-2.4-6.4-4.3-16.9-5.3-24.3c-1-7.1-4.2-16.5-3.8-24.3 c4.6-2.7,9.7-2.5,15-3.5C82.2,83.3,75.4,115.5,75.4,115.5z" fill="url(#t)"/></g></g><g><linearGradient gradientUnits="userSpaceOnUse" id="u" x1="50.983" x2="91.763" xlink:actuate="onLoad" xlink:show="other" xlink:type="simple" xmlns:xlink="http://www.w3.org/1999/xlink" y1="50.386" y2="50.386"><stop offset="0" stop-color="#fbaf28"/><stop offset=".996" stop-color="#f4832c"/></linearGradient><path d="M90.1,58.1c-1.7,0.8-3.7-0.3-5.2-1.5c-3.3-2.6-6.2-5.7-9.1-8.7c1.5,6.5,2.3,13.2,2.4,19.9 C70.4,70.6,61,69.3,51,66.1c0.2-6.7,0.1-24.4,0.3-33.5c3.5-0.6,7-1.1,10.5-1.2c4.9-0.1,9.8,0.8,14,3.3 c5.9,3.5,9.5,9.6,13.6,15.1c1,1.3,2,2.6,2.3,4.2C92,55.5,91.5,57.4,90.1,58.1z" fill="url(#u)"/></g><g><linearGradient gradientUnits="userSpaceOnUse" id="v" x1="74.157" x2="59.347" xlink:actuate="onLoad" xlink:show="other" xlink:type="simple" xmlns:xlink="http://www.w3.org/1999/xlink" y1="33.136" y2="36.013"><stop offset="0" stop-color="#383647"/><stop offset=".993" stop-color="#272535"/></linearGradient><path d="M74.3,34c0,0-10-3.1-12.2,4.3l-2.5-1.1c0,0,0.8-7.3,11.2-4.6" fill="url(#v)"/></g><g><linearGradient gradientUnits="userSpaceOnUse" id="w" x1="76.787" x2="65.796" xlink:actuate="onLoad" xlink:show="other" xlink:type="simple" xmlns:xlink="http://www.w3.org/1999/xlink" y1="52.718" y2="54.853"><stop offset="0" stop-color="#383647"/><stop offset=".993" stop-color="#272535"/></linearGradient><path d="M77.1,54.8c-4.5,3.7-11,1-11,1l-0.9-3.9c6.4,4.4,11.5,0.6,11.5,0.6L77.1,54.8z" fill="url(#w)"/></g><path d="M71.4,117.6c0.1,0.2,0.2,0.4,0.3,0.6c0.3,0.3,0.8,0.3,1.1,0.2c0.9-0.2,1.6-0.9,2.2-1.5 c1.2-1.2,2.3-2.5,3.1-4c0.1-0.3,0.3-0.5,0.3-0.8s-0.1-0.6-0.3-0.8c-0.2-0.1-0.5-0.2-0.7-0.1c-0.2,0.1-0.4,0.2-0.6,0.4 c-0.5,0.4-0.9,1-1.4,1.4c-0.7,0.7-1.6,1.2-2.5,1.6c-0.5,0.2-0.9,0.4-1.4,0.6c-0.4,0.1-0.7,0.2-0.7,0.7 C71,116.5,71.3,117.1,71.4,117.6z" fill="none"/></g><g><g><linearGradient gradientTransform="matrix(1 0 -.06528 1 219.899 0)" gradientUnits="userSpaceOnUse" id="x" x1="-124.757" x2="-202.964" xlink:actuate="onLoad" xlink:show="other" xlink:type="simple" xmlns:xlink="http://www.w3.org/1999/xlink" y1="36.094" y2="63.731"><stop offset="0" stop-color="#ed5b5a"/><stop offset=".993" stop-color="#e24026"/></linearGradient><path d="M46.8,61.2c-0.4-3.6-0.3-7.2-0.2-10.9c0.4-16.5-1-16.3,4.8-18.5c9.4-3.6,11.8-0.2,12.8,4.9 c1.4,7.6,1.3,15.6,4.1,22.7C70.1,64.1,48.1,72.7,46.8,61.2z" fill="url(#x)"/></g><linearGradient gradientTransform="matrix(1 0 -.06528 1 219.899 0)" gradientUnits="userSpaceOnUse" id="y" x1="-126.34" x2="-132.245" xlink:actuate="onLoad" xlink:show="other" xlink:type="simple" xmlns:xlink="http://www.w3.org/1999/xlink" y1="41.924" y2="43.086"><stop offset="0" stop-color="#ed5b5a"/><stop offset=".993" stop-color="#e24026"/></linearGradient><path d="M57.8,64.5c-2.6,1-5.5,1.5-8.2,0.8c-0.4-0.1-0.8-0.3-1.2-0.4c5.3,5.6,21.5-1.4,19.9-5.4 c-2.8-7.1-2.7-15.1-4.1-22.7c-0.9-5.1-3.4-8.5-12.8-4.9c-2.8,1.1-4,1.6-4.4,3.7c1.3-0.7,2.7-1.3,4.1-1.5c2-0.4,4.2,0,5.5,1.4 c1.1,1.2,1.4,2.9,1.6,4.5c1,6.1,2.1,12.3,3.1,18.4c0.2,1.1,0.4,2.2,0,3.3C60.8,63,59.3,63.9,57.8,64.5z" fill="url(#y)"/></g><linearGradient gradientUnits="userSpaceOnUse" id="z" x1="64.263" x2="64.263" xlink:actuate="onLoad" xlink:show="other" xlink:type="simple" xmlns:xlink="http://www.w3.org/1999/xlink" y1="52.457" y2="52.457"><stop offset="0" stop-color="#ed5b5a"/><stop offset=".993" stop-color="#e24026"/></linearGradient></g></g></g></svg>