<?xml version="1.0" encoding="UTF-8"?><svg xmlns="http://www.w3.org/2000/svg" xmlns:xlink="http://www.w3.org/1999/xlink" height="389.7" preserveAspectRatio="xMidYMid meet" version="1.0" viewBox="-1.6 0.0 385.6 389.7" width="385.6" zoomAndPan="magnify"><g><g><path d="M 384 192 C 384 298.039062 298.039062 384 192 384 C 85.960938 384 0 298.039062 0 192 C 0 85.960938 85.960938 0 192 0 C 298.039062 0 384 85.960938 384 192 Z M 384 192" fill="#934cf5"/></g><g><path d="M 383.804688 200.953125 C 381.066406 265.242188 344.851562 325.085938 289.507812 357.773438 C 276.222656 365.617188 261.632812 366.742188 246.574219 369.59375 C 225.859375 373.523438 205.144531 377.476562 184.445312 381.484375 C 157.507812 386.699219 125.285156 374.078125 101.65625 361.457031 C 47.632812 332.59375 9.742188 278.242188 1.679688 217.496094 C -0.925781 197.851562 -0.484375 177.828125 3.007812 158.316406 C 6.382812 139.4375 12.421875 113.96875 24.210938 98.953125 C 33.335938 87.332031 56.542969 80.671875 70.082031 73.949219 C 74.105469 71.953125 79.003906 68.304688 83.453125 67.3125 C 96.535156 64.390625 94.789062 87.171875 108.292969 79.574219 C 116.894531 74.738281 124.171875 62.128906 131 54.613281 C 137.667969 47.277344 158.042969 16.023438 166.605469 32.558594 C 171.53125 42.066406 171.414062 74.96875 184.75 76.046875 C 191.617188 76.601562 193.828125 70.496094 199.34375 77.746094 C 201.007812 79.929688 201.824219 83.734375 202.863281 86.25 C 205.492188 92.59375 208.121094 98.941406 210.75 105.289062 C 214.308594 113.882812 217.867188 122.480469 221.421875 131.074219 C 223.386719 135.816406 225.074219 144.988281 230.238281 147.035156 C 239.109375 150.550781 242.570312 137.066406 249.730469 135.238281 C 258.519531 132.992188 265.359375 148.335938 269.839844 153.738281 C 276.1875 161.390625 280.832031 161.234375 287.054688 153.960938 C 293.644531 146.253906 299.640625 137.941406 305.902344 129.972656 C 312.566406 121.492188 329.382812 92.617188 336.300781 115.222656 C 342.332031 134.925781 346.292969 155.265625 352.320312 174.972656 C 352.84375 176.679688 352.960938 179.046875 353.835938 180.621094 C 358.371094 188.800781 361.574219 184.070312 367.710938 182.574219 C 379.265625 179.753906 380.550781 192.21875 383.804688 200.953125 Z M 383.804688 200.953125" fill="#7cc8fb"/></g><g><path d="M 150.734375 379.550781 C 74.941406 362.949219 15.011719 299.804688 2.535156 223.203125 C -1.625 197.652344 -0.621094 171.363281 5.582031 146.222656 C 9.289062 131.210938 14.808594 116.667969 22.019531 102.988281 C 26.953125 93.632812 35.179688 91.277344 44.679688 86.558594 C 56.464844 80.707031 68.148438 73.996094 80.277344 68.890625 C 85.496094 66.691406 88.65625 65.863281 93.03125 70.683594 C 96.71875 74.742188 100.222656 87.382812 108.292969 79.574219 C 90.21875 99.078125 94.265625 134.34375 99.496094 157.582031 C 103.683594 176.167969 108.539062 194.648438 112.785156 213.242188 C 120.972656 249.097656 129.144531 284.953125 137.328125 320.808594 C 141.796875 340.390625 146.261719 359.972656 150.734375 379.550781 C 74.941406 362.949219 146.261719 359.972656 150.734375 379.550781 Z M 150.734375 379.550781" fill="#41c0e3"/></g><g><path d="M 222.824219 134.457031 C 217.011719 140.484375 209.8125 139.449219 204.875 132.988281 C 201.609375 128.714844 202.511719 123.628906 199.230469 119.671875 C 191.710938 110.613281 184.914062 120.15625 176.664062 119.589844 C 170.03125 119.136719 165.554688 112.292969 162.675781 107.085938 C 156.085938 95.15625 152.238281 89.4375 138.414062 97.089844 C 120.65625 106.925781 111.382812 94.847656 110.234375 77.449219 C 121.171875 65.421875 132.109375 53.390625 143.042969 41.359375 C 147.703125 36.234375 156.75 21.425781 164.890625 28.992188 C 169.808594 33.5625 171.042969 48.066406 172.722656 53.941406 C 174.421875 59.882812 175.742188 74.554688 183.421875 76.109375 C 191.128906 77.664062 192.863281 69.742188 199.472656 78.046875 C 201.8125 80.992188 202.914062 86.363281 204.347656 89.820312 C 210.507812 104.699219 216.667969 119.578125 222.824219 134.457031 Z M 222.824219 134.457031" fill="#9fd5f4"/></g><g><path d="M 221.820312 206.753906 L 224.378906 206.753906 C 225.214844 206.753906 225.78125 205.898438 225.457031 205.125 L 216.535156 184.039062 C 216.210938 183.269531 216.777344 182.414062 217.613281 182.414062 C 218.503906 182.414062 219.070312 181.460938 218.640625 180.679688 L 201.894531 150.121094 C 201.453125 149.308594 200.285156 149.308594 199.84375 150.121094 L 183.097656 180.679688 C 182.667969 181.460938 183.234375 182.414062 184.125 182.414062 C 184.960938 182.414062 185.527344 183.269531 185.203125 184.039062 L 176.285156 205.125 C 175.957031 205.898438 176.523438 206.753906 177.363281 206.753906 L 179.917969 206.753906 C 180.753906 206.753906 181.320312 207.605469 181 208.378906 L 169.253906 236.378906 C 168.929688 237.148438 169.496094 238.003906 170.335938 238.003906 L 231.402344 238.003906 C 232.242188 238.003906 232.808594 237.148438 232.484375 236.378906 L 220.742188 208.378906 C 220.417969 207.605469 220.984375 206.753906 221.820312 206.753906 Z M 221.820312 206.753906" fill="#32314b"/></g><g><path d="M 142.871094 154.613281 L 145.425781 154.613281 C 146.265625 154.613281 146.832031 153.757812 146.503906 152.984375 L 137.585938 131.898438 C 137.257812 131.128906 137.824219 130.273438 138.664062 130.273438 C 139.554688 130.273438 140.121094 129.320312 139.691406 128.539062 L 122.945312 97.980469 C 122.5 97.167969 121.335938 97.167969 120.890625 97.980469 L 104.148438 128.539062 C 103.71875 129.320312 104.285156 130.273438 105.171875 130.273438 C 106.011719 130.273438 106.578125 131.128906 106.25 131.898438 L 97.332031 152.984375 C 97.003906 153.757812 97.570312 154.613281 98.410156 154.613281 L 100.964844 154.613281 C 101.804688 154.613281 102.371094 155.464844 102.046875 156.234375 L 90.304688 184.238281 C 89.980469 185.007812 90.546875 185.859375 91.382812 185.859375 L 152.453125 185.859375 C 153.289062 185.859375 153.855469 185.007812 153.53125 184.238281 L 141.789062 156.234375 C 141.46875 155.464844 142.035156 154.613281 142.871094 154.613281 Z M 142.871094 154.613281" fill="#4f4f74"/></g><g><path d="M 263.085938 219.527344 L 265.28125 219.527344 C 266 219.527344 266.484375 218.792969 266.207031 218.132812 L 258.546875 200.03125 C 258.265625 199.367188 258.753906 198.632812 259.472656 198.632812 C 260.238281 198.632812 260.722656 197.816406 260.355469 197.144531 L 245.980469 170.90625 C 245.597656 170.210938 244.597656 170.210938 244.214844 170.90625 L 229.839844 197.144531 C 229.472656 197.8125 229.957031 198.632812 230.722656 198.632812 C 231.441406 198.632812 231.929688 199.367188 231.648438 200.03125 L 223.988281 218.132812 C 223.710938 218.792969 224.195312 219.527344 224.914062 219.527344 L 227.109375 219.527344 C 227.828125 219.527344 228.316406 220.261719 228.039062 220.921875 L 217.957031 244.960938 C 217.675781 245.625 218.164062 246.355469 218.882812 246.355469 L 271.3125 246.355469 C 272.03125 246.355469 272.515625 245.625 272.238281 244.960938 L 262.15625 220.921875 C 261.878906 220.261719 262.367188 219.527344 263.085938 219.527344 Z M 263.085938 219.527344" fill="#3e436d"/></g><g><path d="M 75.164062 129.273438 L 76.765625 129.273438 C 77.292969 129.273438 77.648438 128.738281 77.441406 128.253906 L 71.847656 115.027344 C 71.640625 114.542969 71.996094 114.007812 72.523438 114.007812 C 73.082031 114.007812 73.4375 113.410156 73.167969 112.917969 L 62.664062 93.75 C 62.386719 93.242188 61.65625 93.242188 61.375 93.75 L 50.871094 112.917969 C 50.605469 113.410156 50.957031 114.007812 51.515625 114.007812 C 52.042969 114.007812 52.398438 114.542969 52.191406 115.027344 L 46.597656 128.253906 C 46.394531 128.738281 46.75 129.273438 47.273438 129.273438 L 48.878906 129.273438 C 49.402344 129.273438 49.757812 129.808594 49.554688 130.292969 L 42.1875 147.855469 C 41.984375 148.339844 42.339844 148.875 42.867188 148.875 L 81.171875 148.875 C 81.699219 148.875 82.054688 148.339844 81.851562 147.855469 L 74.484375 130.292969 C 74.28125 129.808594 74.636719 129.273438 75.164062 129.273438 Z M 75.164062 129.273438" fill="#3e436d"/></g><g><path d="M 335.414062 244.277344 L 337.015625 244.277344 C 337.542969 244.277344 337.898438 243.742188 337.691406 243.257812 L 332.097656 230.03125 C 331.890625 229.546875 332.246094 229.011719 332.773438 229.011719 C 333.332031 229.011719 333.6875 228.414062 333.417969 227.921875 L 322.914062 208.753906 C 322.636719 208.246094 321.90625 208.246094 321.625 208.753906 L 311.121094 227.921875 C 310.851562 228.414062 311.207031 229.011719 311.765625 229.011719 C 312.292969 229.011719 312.648438 229.546875 312.441406 230.03125 L 306.847656 243.257812 C 306.640625 243.742188 306.996094 244.277344 307.523438 244.277344 L 309.125 244.277344 C 309.652344 244.277344 310.007812 244.8125 309.804688 245.296875 L 302.4375 262.859375 C 302.234375 263.34375 302.589844 263.878906 303.113281 263.878906 L 341.421875 263.878906 C 341.945312 263.878906 342.300781 263.34375 342.097656 262.859375 L 334.734375 245.296875 C 334.53125 244.8125 334.886719 244.277344 335.414062 244.277344 Z M 335.414062 244.277344" fill="#32314b"/></g><g><path d="M 291.914062 225.464844 L 293.515625 225.464844 C 294.042969 225.464844 294.398438 224.925781 294.191406 224.441406 L 288.597656 211.21875 C 288.390625 210.734375 288.746094 210.195312 289.273438 210.195312 C 289.832031 210.195312 290.1875 209.597656 289.917969 209.109375 L 279.414062 189.941406 C 279.136719 189.429688 278.40625 189.429688 278.125 189.941406 L 267.621094 209.109375 C 267.351562 209.597656 267.707031 210.195312 268.265625 210.195312 C 268.792969 210.195312 269.148438 210.734375 268.941406 211.21875 L 263.347656 224.441406 C 263.140625 224.925781 263.496094 225.464844 264.023438 225.464844 L 265.625 225.464844 C 266.152344 225.464844 266.507812 226 266.304688 226.480469 L 258.9375 244.046875 C 258.734375 244.53125 259.089844 245.066406 259.613281 245.066406 L 297.921875 245.066406 C 298.445312 245.066406 298.800781 244.53125 298.597656 244.046875 L 291.234375 226.480469 C 291.03125 226 291.386719 225.464844 291.914062 225.464844 Z M 291.914062 225.464844" fill="#4f4f74"/></g><g><path d="M 360.742188 283.859375 C 330.921875 338.503906 274.285156 376.097656 212.464844 382.875 C 150.59375 389.660156 87.765625 364.433594 46.957031 317.59375 C 24.214844 291.480469 8.972656 259.226562 3 225.128906 C -0.0742188 207.585938 -0.691406 189.625 1.160156 171.90625 C 2.21875 161.824219 4.378906 152.105469 6.640625 142.25 C 7.429688 138.8125 7.800781 130.6875 10.859375 128.542969 C 16.53125 124.5625 41.519531 132.355469 47.503906 133.636719 C 66.003906 137.605469 84.125 143.511719 101.261719 151.566406 C 116.898438 158.914062 131.699219 168.054688 145.101562 178.96875 C 159.457031 190.660156 169.527344 205.96875 183.269531 218.078125 C 197.636719 230.734375 216.148438 237.867188 234.984375 240.226562 C 253.761719 242.574219 272.613281 238.058594 291.226562 241.039062 C 309.109375 243.90625 325.734375 252.367188 339.867188 263.503906 C 345.570312 268 354.847656 274.246094 358.050781 280.730469 C 360.417969 285.527344 360.628906 285.445312 357.015625 290.402344 C 356.332031 291.339844 354.921875 294.800781 353.484375 295.140625 C 353.078125 295.238281 357.835938 280.386719 360.742188 283.859375 C 327.347656 345.050781 357.210938 279.636719 360.742188 283.859375 Z M 360.742188 283.859375" fill="#fff"/></g><g><path d="M 42.800781 173.707031 C 56.203125 169.070312 90.007812 162.28125 106.570312 203.601562 C 106.757812 204.066406 107.253906 204.332031 107.738281 204.210938 C 112.203125 203.109375 133.316406 198.945312 143.222656 215.796875 C 143.753906 216.703125 142.683594 217.722656 141.804688 217.140625 C 135.507812 212.996094 120.703125 206.242188 100.621094 216.253906 C 100.023438 216.550781 99.304688 216.214844 99.175781 215.558594 C 97.777344 208.386719 88.746094 174.441406 43.167969 175.65625 C 42.023438 175.683594 41.71875 174.082031 42.800781 173.707031 Z M 42.800781 173.707031" fill="#d0e1fc"/></g><g><path d="M 116.886719 248.414062 C 124.984375 259.570312 142.933594 277.746094 177.441406 285.6875 C 185.296875 287.492188 193.308594 288.492188 201.359375 288.894531 C 215.925781 289.625 257.441406 293.351562 288.613281 312.347656 C 295.792969 316.722656 296.238281 327.011719 289.320312 331.792969 C 288.472656 332.378906 287.542969 332.925781 286.527344 333.410156 C 282.269531 335.445312 277.183594 334.652344 273.726562 331.4375 C 264.289062 322.660156 238.1875 302.917969 193.367188 301.757812 C 177.253906 301.34375 161.386719 297.296875 147.269531 289.519531 C 133.160156 281.746094 118.945312 269.410156 113.390625 250.160156 C 112.773438 248.019531 115.578125 246.613281 116.886719 248.414062 Z M 116.886719 248.414062" fill="#d0e1fc"/></g><g><path d="M 73.945312 243.46875 C 75.769531 254.082031 82.074219 273.007812 103.511719 290.476562 C 108.390625 294.449219 113.664062 297.914062 119.164062 300.972656 C 129.117188 306.511719 156.917969 323.445312 172.203125 347.507812 C 175.726562 353.054688 172.488281 360.414062 165.992188 361.378906 C 165.191406 361.496094 164.355469 361.558594 163.476562 361.546875 C 159.789062 361.503906 156.5 359.195312 155.1875 355.75 C 151.605469 346.339844 140.128906 323.503906 109.125 307.230469 C 97.980469 301.378906 88.257812 293.070312 81.050781 282.75 C 73.847656 272.4375 68.144531 258.890625 70.894531 243.488281 C 71.199219 241.777344 73.652344 241.757812 73.945312 243.46875 Z M 73.945312 243.46875" fill="#d0e1fc"/></g><g><path d="M 212.351562 263.449219 C 218.964844 268.996094 232.625 277.308594 254.789062 276.886719 C 259.832031 276.792969 264.851562 276.179688 269.796875 275.203125 C 278.757812 273.433594 304.535156 269.390625 326.351562 276.191406 C 331.375 277.757812 333.207031 283.9375 329.730469 287.894531 C 329.304688 288.378906 328.824219 288.851562 328.28125 289.300781 C 326.003906 291.183594 322.796875 291.476562 320.207031 290.046875 C 313.144531 286.148438 294.292969 278.125 266.898438 284.226562 C 257.050781 286.421875 246.800781 286.378906 237.046875 283.796875 C 227.296875 281.222656 216.789062 275.886719 210.492188 265.039062 C 209.792969 263.835938 211.285156 262.554688 212.351562 263.449219 Z M 212.351562 263.449219" fill="#d0e1fc"/></g><g><path d="M 383.804688 200.953125 L 383.804688 200.960938 C 383.664062 204.253906 383.4375 207.523438 383.121094 210.773438 C 370.078125 217.230469 360.742188 192 360.742188 192 C 351.328125 183.863281 345.34375 189.914062 343.125 193.050781 C 341.960938 194.691406 340.546875 196.15625 338.851562 197.242188 C 331.941406 201.667969 327.121094 197.933594 323.949219 192.734375 C 322.792969 190.84375 321.855469 188.761719 321.121094 186.800781 C 320.234375 184.46875 319.636719 182.324219 319.28125 180.898438 C 318.847656 179.167969 318.121094 177.511719 317.011719 176.109375 C 312.253906 170.078125 306.667969 174.421875 303.984375 177.234375 C 302.976562 178.28125 302.378906 179.121094 302.378906 179.121094 C 301.808594 179.488281 301.253906 179.835938 300.703125 180.140625 C 298.3125 181.539062 296.175781 182.421875 294.261719 182.894531 C 281.574219 186.03125 278.960938 170.730469 278.59375 160.507812 C 280.628906 160.46875 282.636719 159.578125 284.023438 157.816406 L 322.808594 108.457031 C 326.398438 103.890625 333.667969 105.382812 335.167969 110.992188 L 353.835938 180.621094 C 355.078125 185.289062 360.539062 187.351562 364.558594 184.671875 L 367.710938 182.574219 C 371.496094 180.046875 376.648438 181.71875 378.234375 185.976562 Z M 383.804688 200.953125" fill="#c5e7f9"/></g><g><path d="M 209.347656 101.898438 C 200.8125 105.984375 191.191406 100.203125 184.089844 93.933594 C 178.664062 89.148438 171.832031 75.65625 171.699219 75.363281 C 168.441406 68.027344 160.1875 64.226562 152.414062 66.234375 C 137.902344 69.984375 130.261719 65.726562 126.261719 59.824219 L 154.359375 28.910156 C 158.078125 24.820312 164.84375 26.402344 166.367188 31.714844 L 176.632812 67.617188 C 177.476562 70.570312 179.289062 73.203125 181.882812 74.851562 C 184.035156 76.214844 186.238281 76.546875 188.609375 74.777344 C 189.886719 73.828125 191.363281 73.382812 192.808594 73.382812 C 195.539062 73.382812 198.195312 74.964844 199.34375 77.742188 Z M 209.347656 101.898438" fill="#c5e7f9"/></g><g><path d="M 163.890625 111.214844 L 163.890625 141.527344 L 191.039062 126.371094 Z M 163.890625 111.214844" fill="#db1b1b"/></g><g><path d="M 160.671875 242.503906 C 162.449219 242.503906 163.890625 241.058594 163.890625 239.28125 L 163.890625 104.589844 C 163.890625 102.8125 162.449219 101.371094 160.671875 101.371094 C 158.894531 101.371094 157.453125 102.8125 157.453125 104.589844 L 157.453125 239.28125 C 157.453125 241.058594 158.894531 242.503906 160.671875 242.503906 Z M 160.671875 242.503906" fill="#9e4830"/></g><g><path d="M 300.703125 175.402344 L 300.703125 205.71875 L 327.847656 190.5625 Z M 300.703125 175.402344" fill="#db1b1b"/></g><g><path d="M 297.484375 306.691406 C 299.261719 306.691406 300.703125 305.25 300.703125 303.472656 L 300.703125 168.777344 C 300.703125 167 299.261719 165.558594 297.484375 165.558594 C 295.703125 165.558594 294.261719 167 294.261719 168.777344 L 294.261719 303.472656 C 294.261719 305.25 295.703125 306.691406 297.484375 306.691406 Z M 297.484375 306.691406" fill="#9e4830"/></g></g></svg>