<?xml version="1.0" encoding="UTF-8"?><svg xmlns="http://www.w3.org/2000/svg" xmlns:xlink="http://www.w3.org/1999/xlink" height="128.0" preserveAspectRatio="xMidYMid meet" version="1.0" viewBox="1.0 1.0 129.2 128.0" width="129.2" zoomAndPan="magnify"><g><g><g><linearGradient gradientUnits="userSpaceOnUse" id="a" x1="65" x2="65" xlink:actuate="onLoad" xlink:show="other" xlink:type="simple" xmlns:xlink="http://www.w3.org/1999/xlink" y1="56.931" y2="9.224"><stop offset="0" stop-color="#fbaf28"/><stop offset=".996" stop-color="#f4832c"/></linearGradient><path d="M1,65c0,35.35,28.65,64.0001,64,64.0002c35.34,0,64-28.65,64-64.0001 c0-35.34-28.66-64.0001-64-64.0002C29.65,0.9998,1,29.6599,1,65z" fill="url(#a)"/><g id="change1_1"><path d="M122.9222,37.7742c-0.3722-0.7902-0.7647-1.5685-1.1679-2.3407 c-1.6196,1.6106-3.3368,3.1263-5.1409,4.518c-5.8113,4.483-12.3832,7.8801-19.0715,10.9023 C106.5585,47.7092,115.1183,43.2771,122.9222,37.7742z" fill="#FBAF28"/></g><g id="change1_2"><path d="M18.715,20.8265c2.4182,0.1561,4.8437,0.2374,7.2634,0.2961 c12.37,0.31,25.03,0.12,36.69-4.01c-13.303,3.0392-27.2495,3.1554-40.6177,0.4424 C20.8959,18.6011,19.7908,19.6996,18.715,20.8265z" fill="#FBAF28" opacity=".5"/></g><g id="change1_4" opacity=".5"><path d="M4.3956,44.438c6.5468,0.6548,13.1169,1.0179,19.6953,0.9571 c15.3021-0.1505,30.6647-2.535,44.9126-8.1088c-12.9859,3.5938-26.4632,5.3731-39.9319,5.2549 c0.1125-1.8276,0.2279-3.6849-0.1858-5.4718c-0.4246-1.7778-1.4667-3.5036-3.1089-4.3017 c-1.6522-0.7991-3.9206-0.3907-4.8624,1.1776c-0.3571,0.589-0.4268,1.3257-0.2689,1.9935 c-0.7715-0.2336-1.6081-0.2022-2.3185,0.1927c-1.6528,0.9084-2.0748,3.4601-0.7906,4.8571 c-3.6124-0.6432-7.1636-1.6194-10.6139-2.8746C5.9712,40.1654,5.129,42.2759,4.3956,44.438z" fill="#FBAF28"/></g><linearGradient gradientUnits="userSpaceOnUse" id="b" x1="79.118" x2="79.118" xlink:actuate="onLoad" xlink:show="other" xlink:type="simple" xmlns:xlink="http://www.w3.org/1999/xlink" y1="148.46" y2="150.848"><stop offset=".004" stop-color="#e6e6e6"/><stop offset="1" stop-color="#f1f1f1"/></linearGradient><path d="M75.4462,128.1376c24.3339-3.9973,44.0405-21.7145,50.9173-44.9543 c-14.2505-8.6626-40.7853-24.3551-49.9426-26.8206c-12.7587-3.4351-44.5473,28.2957-44.5473,28.2957L75.4462,128.1376z" fill="url(#b)"/><g><linearGradient gradientUnits="userSpaceOnUse" id="c" x1="53.775" x2="53.105" xlink:actuate="onLoad" xlink:show="other" xlink:type="simple" xmlns:xlink="http://www.w3.org/1999/xlink" y1="147.504" y2="85.484"><stop offset=".004" stop-color="#e6e6e6"/><stop offset="1" stop-color="#f1f1f1"/></linearGradient><path d="M1.4829,57.257C1.1763,59.7971,1,62.3773,1,64.9999c0,35.35,28.65,64.0001,64,64.0002 c15.2793,0,29.3035-5.3633,40.3091-14.3004L1.4829,57.257z" fill="url(#c)"/></g></g><g><g><g><linearGradient gradientUnits="userSpaceOnUse" id="d" x1="51.695" x2="51.695" xlink:actuate="onLoad" xlink:show="other" xlink:type="simple" xmlns:xlink="http://www.w3.org/1999/xlink" y1="6643.852" y2="6574.285"><stop offset="0" stop-color="#fcdebd"/><stop offset=".986" stop-color="#e09183"/></linearGradient><path d="M64.7342,98.5563c-0.21,0.23-0.39,0.5-0.52,0.8c-1.5781-0.234-2.8778,0.2003-3.8701,1.0699 c-1.3056-0.7324-2.8483-0.8952-4.21-0.54c-10.3332-42.848-15.2923-49.7436-17.39-56.56c-0.5-1.65,1.18-2.83,3.48-3.54 c2.31-0.7,4.36-0.66,4.87,0.99c0.16,0.52,0.91,3.66,1.78,7.7C53.9737,72.1602,64.6929,98.4424,64.7342,98.5563z" fill="url(#d)"/></g><g><linearGradient gradientUnits="userSpaceOnUse" id="e" x1="36.406" x2="57.52" xlink:actuate="onLoad" xlink:show="other" xlink:type="simple" xmlns:xlink="http://www.w3.org/1999/xlink" y1="114.906" y2="36.226"><stop offset="0" stop-color="#fcdebd"/><stop offset=".986" stop-color="#e09183"/></linearGradient><path d="M60.3943,43.1063c-0.9477,3.1385-9.5614,22.9256-16.91,54.58 c-1.3843-0.1023-2.7425,0.054-4.05,0.52c-0.37-1.03-1.06-1.92-1.94-2.55c1.8737-1.2059,2.2515-3.7633,0.82-5.46 c9.0439-24.1396,13.9095-47.7041,14.46-49.42C53.7064,37.7003,61.3419,40.0406,60.3943,43.1063z" fill="url(#e)"/></g></g><g><g><linearGradient gradientTransform="matrix(1 0 -.0443 .9926 -52.682 -8.823)" gradientUnits="userSpaceOnUse" id="f" x1="145.749" x2="145.749" xlink:actuate="onLoad" xlink:show="other" xlink:type="simple" xmlns:xlink="http://www.w3.org/1999/xlink" y1="41.634" y2="22.017"><stop offset="0" stop-color="#383647"/><stop offset=".993" stop-color="#272535"/></linearGradient><path d="M99.7173,29.8539c-0.2052,4.5926-4.2591,11.3773-8.8861,11.3773 c-4.627,0-8.0748-6.7847-7.8696-11.3773c0.2051-4.5926,4.0613-6.9481,8.6882-6.9481 C96.2768,22.9058,99.9225,25.2613,99.7173,29.8539z" fill="url(#f)"/></g><g><g><g><linearGradient gradientUnits="userSpaceOnUse" id="g" x1="96.679" x2="96.679" xlink:actuate="onLoad" xlink:show="other" xlink:type="simple" xmlns:xlink="http://www.w3.org/1999/xlink" y1="-.42" y2="56.656"><stop offset="0" stop-color="#2a3477"/><stop offset=".989" stop-color="#13163f"/></linearGradient><path d="M83.5465,84.6585l0.2792,27.5605l-2.2043,14.5879c3.7365-1.0026,7.3389-2.3301,10.7725-3.959 c3.4783-9.7212,4.3128-16.7192,4.8201-19.0692l2.2114,15.1607c3.9609-2.5333,7.6327-5.4782,10.9348-8.796l1.3765-25.485 H83.5465z" fill="url(#g)"/><g><linearGradient gradientUnits="userSpaceOnUse" id="h" x1="90.691" x2="85.183" xlink:actuate="onLoad" xlink:show="other" xlink:type="simple" xmlns:xlink="http://www.w3.org/1999/xlink" y1="3.311" y2="88.219"><stop offset="0" stop-color="#ed5b5a"/><stop offset=".993" stop-color="#e24026"/></linearGradient><path d="M127.4779,11.7059c-1.8116,1.2632-4.4756,2.5607-6.0866,3.2984l-13.1974,30.0945 c-0.1089,3.2162-0.2905,14.6517,2.1422,23.6029c2.8589,10.5239,3.7967,16.6848,1.2627,18.5086 c-3.0886,2.223-27.1151,2.8299-28.7162-1.6936c-1.1269-3.1838-1.03-19.7885-3.2028-26.6528 c-1.2785-4.0404-0.3233-0.9588-20.2968-43.5977c-1.6301-0.6918-4.3284-1.9129-6.1764-3.1245 c-2.8091-1.8422-0.9822-6.3484,1.3148-6.1133c1.5517,0.1586,3.5372,1.9492,4.659,3.0939 c-0.1548-1.4313-0.2159-3.4283,0.7644-2.8684c1.0243,0.581,1.632,3.9138,1.9148,5.9738l21.0287,28.3116 c5.1884-1.1447,10.4685-1.0587,15.8422,0.2255l20.1-28.7224c0.2236-2.0658,0.7376-5.4196,1.7447-6.0311 c0.965-0.5867,0.9612,1.4122,0.8447,2.8455c1.0912-1.1753,3.0233-3.0213,4.5711-3.2239 C128.2805,5.3327,130.2336,9.7854,127.4779,11.7059z" fill="url(#h)"/></g></g></g><g><linearGradient gradientUnits="userSpaceOnUse" id="i" x1="90.996" x2="86.441" xlink:actuate="onLoad" xlink:show="other" xlink:type="simple" xmlns:xlink="http://www.w3.org/1999/xlink" y1="35.423" y2="105.647"><stop offset="0" stop-color="#ed5b5a"/><stop offset=".993" stop-color="#e24026"/></linearGradient><path d="M91.3694,56.0681c-1.9664,0.8294-3.9635-0.1949-5.175-1.7887 c-2.1313-2.807-5.5302-15.1786-3.9959-17.7609c1.239-2.0897,4.4845-1.6543,13.4344-1.3071 C105.5631,35.592,94.5891,54.7077,91.3694,56.0681z" fill="url(#i)"/></g></g></g></g></g><g id="change1_3"><path d="M99.7234,11.2541c-4.2249,5.1469-10.2958,7.8088-18.0117,7.7272 c9.6072,2.2148,16.0839-0.9235,21.6997-5.1693C102.2165,12.9138,100.9811,12.0684,99.7234,11.2541z" fill="#FBAF28" opacity=".5"/></g></g></svg>