<?xml version="1.0" encoding="UTF-8"?><svg xmlns="http://www.w3.org/2000/svg" xmlns:xlink="http://www.w3.org/1999/xlink" enable-background="new 0 0 512 512" height="510.0" preserveAspectRatio="xMidYMid meet" version="1.0" viewBox="1.0 1.0 510.0 510.0" width="510.0" zoomAndPan="magnify">
 <g clip-rule="evenodd" fill-rule="evenodd">
  <g id="change1_1"><path d="m256 1c-140.84 0-255 114.16-255 254.99 0 140.84 114.16 255.01 255 255.01 140.82 0 255-114.17 255-255.01 0-140.83-114.18-254.99-255-254.99z" fill="#99dbf0"/></g>
  <g id="change2_1"><path d="m20.433 353.79c38.356 92.299 129.38 157.21 235.57 157.21 106.17 0 197.18-64.915 235.55-157.21z" fill="#b3b3b3"/></g>
  <g id="change3_1"><path d="m255.99 281.3c-102.94 0-194.12 9.273-250.3 23.525 5.007 25.803 13.874 50.221 26.036 72.606 140.08 49.611 263.08 60.488 448.55 0 12.146-22.386 21.028-46.803 26.035-72.606-56.192-14.251-147.37-23.525-250.33-23.525z" fill="#fff"/></g>
  <g id="change4_1"><path d="m216.38 78.323c-18.024 0-32.755 20.463-32.755 38.487v167.59h65.495v-167.59c0-18.01-14.729-38.487-32.74-38.487z" fill="#db0000"/></g>
  <g id="change3_2"><path d="m207.38 119.22c0 2.061 1.262 3.744 2.829 3.744 1.539 0 2.802-1.683 2.802-3.744v-40.649c-1.931 0.261-3.803 0.769-5.631 1.473zm-7.634-18.924c0 1.35 1.103 2.453 2.452 2.453 1.364 0 2.468-1.103 2.468-2.453v-19.026c-1.713 0.878-3.367 1.93-4.92 3.127zm-12.365 31.674c0 2.496 2.047 4.549 4.543 4.549 2.511 0 4.542-2.053 4.542-4.549v-44.721c-3.744 3.665-6.864 8.2-9.085 13.09zm29.446-22.067c0 1.785 1.103 3.244 2.452 3.244 1.336 0 2.438-1.459 2.438-3.244v-30.97c-1.582-0.363-3.222-0.566-4.891-0.595v31.565zm7.271-13.816c0 1.785 1.104 3.236 2.453 3.236s2.438-1.452 2.438-3.236v-14.338c-1.567-0.871-3.207-1.597-4.891-2.148zm16.37-4.027v36.027c0 1.785 1.104 3.244 2.438 3.244 1.35 0 2.452-1.458 2.452-3.244v-27.748c-1.335-2.924-2.974-5.717-4.89-8.279zm-7.996-8.055v31.354c0 1.785 1.089 3.236 2.438 3.236s2.438-1.451 2.438-3.236v-27c-1.509-1.61-3.15-3.076-4.876-4.354z" fill="#fff"/></g>
  <g id="change5_1"><path d="m183.63 210.98v8.381c18.722-10.776 41.695-23.989 65.495-37.704v-8.374z" fill="#f27300"/></g>
  <g id="change6_1"><path d="m183.63 187.14v16.762c18.011-10.369 41.1-23.655 65.495-37.718v-16.747z" fill="#cf6100"/></g>
  <g id="change7_1"><path d="m183.63 173.45v8.388c19.084-10.979 42.014-24.178 65.495-37.704v-8.374c-23.264 13.396-46.164 26.573-65.495 37.69z" fill="#f93"/></g>
  <g id="change4_2"><path d="m295.88 78.323c-18.01 0-32.755 20.463-32.755 38.487v167.59h65.51v-167.59c0-18.01-14.731-38.487-32.755-38.487z" fill="#db0000"/></g>
  <g id="change3_3"><path d="m288.1 114.5c0 2.061 1.276 3.737 2.815 3.737 1.553 0 2.829-1.676 2.829-3.737v-36.078c-1.93 0.174-3.802 0.573-5.645 1.183v34.895zm9.447-9.331c0 1.785 1.117 3.251 2.452 3.251 1.351 0 2.453-1.466 2.453-3.251v-25.926c-1.597-0.443-3.222-0.748-4.905-0.856zm-29.446-7.307v29.373c0 2.503 2.062 4.55 4.543 4.55 2.511 0 4.557-2.046 4.557-4.55v-41.128c-3.643 3.244-6.734 7.307-9.1 11.755zm12.365-2.3c0 1.357 1.103 2.467 2.467 2.467 1.335 0 2.453-1.11 2.453-2.467v-14.89c-1.713 0.776-3.353 1.727-4.92 2.83zm40.721-1.785v29.577c0 1.785 1.104 3.244 2.453 3.244 1.335 0 2.438-1.459 2.438-3.244v-20.057c-1.248-3.345-2.902-6.56-4.891-9.52zm-16.355-2.417c0 1.785 1.104 3.244 2.438 3.244 1.35 0 2.452-1.458 2.452-3.244v-8.889c-1.567-0.973-3.207-1.8-4.891-2.438v11.327zm8.359-6.407v25.673c0 1.792 1.103 3.25 2.452 3.25 1.336 0 2.438-1.458 2.438-3.25v-20.927c-1.508-1.735-3.148-3.338-4.89-4.746z" fill="#fff"/></g>
  <g id="change5_2"><path d="m263.13 262.03v8.374c22.684-13.062 45.497-26.217 65.51-37.776v-8.374c-19.795 11.436-42.623 24.591-65.51 37.776z" fill="#f27300"/></g>
  <g id="change6_2"><path d="m263.13 238.2v16.74c22.306-12.858 45.076-25.977 65.51-37.776v-16.733c-20.013 11.552-42.841 24.708-65.51 37.769z" fill="#cf6100"/></g>
  <g id="change7_2"><path d="m263.13 224.51v8.374c22.93-13.199 45.758-26.369 65.51-37.791v-8.359c-19.505 11.261-42.377 24.453-65.51 37.776z" fill="#f93"/></g>
  <g id="change2_2"><path d="m347.53 280.26c-69.138-42.116-148.04-30.332-195.66 7.539-9.956 7.902-9.811 33.089-3.846 43.966 1.625 2.946 4.049 5.689 7.662 8.272 35.164 25.238 65.292 37.188 92.604-0.203h20.26c30.288 35.498 67.28 28.445 90.472 1.074 15.688-18.533 10.493-47.238-11.494-60.648z" fill="#b3b3b3"/></g>
  <g id="change8_1"><path d="m351.44 282.95v65.742c2.656-2.366 5.196-4.963 7.591-7.779 14.701-17.386 11.058-43.712-7.591-57.963z" fill="#ccc"/></g>
  <g id="change8_2"><path d="m151.87 287.8c-9.956 7.902-9.811 33.089-3.846 43.966 1.625 2.946 4.049 5.689 7.662 8.272l2.902 2.061v-59.313c-2.307 1.611-4.556 3.28-6.718 5.014z" fill="#ccc"/></g>
  <g id="change9_1"><path d="m324.09 288.58c-54.77-33.364-110.83-23.699-148.56 6.313-7.88 6.27-9.811 23.496-5.094 32.109 1.291 2.337 3.178 4.572 6.08 6.553 62.273 42.449 68.021-7.75 79.732-8.635 11.232-0.863 43.16 51.984 81.372 9.317 12.844-14.325 3.903-35.034-13.526-45.657z" fill="#d6ffff"/></g>
  <g id="change1_2"><path d="m331.25 293.93-48.748 48.74c14.847 9.564 34.032 15.122 55.119-8.432 10.943-12.19 6.067-29.025-6.371-40.308z" fill="#99dbf0"/></g>
  <g id="change1_3"><path d="m175.53 294.89c-7.88 6.27-9.811 23.496-5.094 32.109 1.291 2.337 3.178 4.572 6.08 6.553 2.104 1.437 4.137 2.757 6.125 3.991l69.936-69.936c-29.127 0.086-55.945 10.506-77.047 27.283z" fill="#99dbf0"/></g>
  <g id="change10_1"><path d="m328.52 286.2c-46.687-29.424-111.34-29.627-155.04 5.965-7.794 6.356-7.765 26.209-3.033 34.83 1.263 2.314 3.163 4.448 5.95 6.473v-28.489c46.643-40.65 105.49-46.034 154.68 1.016l-1.263 35.962c2.771-2.264 5.398-4.854 7.822-7.713 12.423-14.68 8.141-37.16-9.114-48.044z" fill="#808080"/></g>
  <g fill="#fff" id="change3_4">
   <path d="m410.69 114.44c-7.778 0-14.092 6.313-14.092 14.099 0 7.779 6.313 14.084 14.092 14.084 7.793 0 14.092-6.306 14.092-14.084 0-7.786-6.299-14.099-14.092-14.099z" fill="inherit"/>
   <path d="m342.23 151.38c-4.412 0-7.997 3.578-7.997 7.997 0 4.426 3.585 8.011 7.997 8.011 4.426 0 8.011-3.584 8.011-8.011 0-4.419-3.585-7.997-8.011-7.997z" fill="inherit"/>
   <path d="m358.43 78.642c-3.004 0-5.456 2.453-5.456 5.457 0 3.011 2.452 5.464 5.456 5.464s5.442-2.453 5.442-5.464c0-3.004-2.438-5.457-5.442-5.457z" fill="inherit"/>
   <path d="m340.87 109.55c-2.163 0-3.904 1.756-3.904 3.911s1.741 3.911 3.904 3.911c2.162 0 3.903-1.756 3.903-3.911s-1.741-3.911-3.903-3.911z" fill="inherit"/>
   <path d="m164.89 150.65c-3.759-7.22-12.655-10.014-19.868-6.24-7.198 3.759-9.984 12.647-6.226 19.853 3.759 7.213 12.655 10.006 19.854 6.241 7.212-3.759 10.013-12.655 6.24-19.854z" fill="inherit"/>
   <path d="m289.87 107.74c-8.142 0-14.73 6.589-14.73 14.716 0 8.142 6.589 14.73 14.73 14.73 8.127 0 14.701-6.589 14.701-14.73 0-8.127-6.574-14.716-14.701-14.716z" fill="inherit"/>
   <path d="m167.43 90.238c-2.047-3.918-6.879-5.435-10.798-3.396-3.918 2.054-5.442 6.886-3.396 10.812 2.046 3.918 6.879 5.435 10.797 3.396 3.919-2.054 5.443-6.886 3.397-10.812z" fill="inherit"/>
   <path d="m90.949 111.9c-1.394-2.67-4.688-3.701-7.372-2.307-2.656 1.393-3.687 4.688-2.308 7.357 1.393 2.67 4.688 3.708 7.357 2.308 2.686-1.386 3.717-4.688 2.323-7.358z" fill="inherit"/>
   <path d="m123.73 114.6c-1.002-1.916-3.367-2.649-5.283-1.655-1.901 1.001-2.641 3.36-1.654 5.275 1.001 1.909 3.367 2.656 5.269 1.655 1.914-1.001 2.669-3.352 1.668-5.275z" fill="inherit"/>
   <path d="m418.83 323.89c-7.764 0-14.092 6.313-14.092 14.099 0 7.779 6.328 14.084 14.092 14.084 7.793 0 14.092-6.306 14.092-14.084 0-7.786-6.299-14.099-14.092-14.099z" fill="inherit"/>
   <path d="m350.38 360.82c-4.411 0-7.996 3.577-7.996 8.011 0 4.412 3.585 8.004 7.996 8.004 4.427 0 8.012-3.592 8.012-8.004 0-4.434-3.585-8.011-8.012-8.011z" fill="inherit"/>
   <path d="m366.57 288.09c-3.004 0-5.456 2.453-5.456 5.457 0 3.011 2.452 5.457 5.456 5.457s5.457-2.445 5.457-5.457c0-3.004-2.453-5.457-5.457-5.457z" fill="inherit"/>
   <path d="m349.01 319c-2.163 0-3.904 1.756-3.904 3.911s1.741 3.911 3.904 3.911c2.162 0 3.918-1.756 3.918-3.911s-1.756-3.911-3.918-3.911z" fill="inherit"/>
   <path d="m173.05 360.08c-3.773-7.206-12.655-9.999-19.868-6.226-7.213 3.759-9.999 12.648-6.24 19.854 3.759 7.213 12.655 10.006 19.868 6.24 7.198-3.759 9.999-12.655 6.24-19.868z" fill="inherit"/>
   <path d="m298.02 317.18c-8.128 0-14.716 6.596-14.716 14.723 0 8.134 6.588 14.723 14.716 14.723 8.127 0 14.715-6.589 14.715-14.723-0.001-8.127-6.588-14.723-14.715-14.723z" fill="inherit"/>
   <path d="m175.57 299.68c-2.047-3.918-6.88-5.435-10.798-3.396-3.918 2.053-5.442 6.886-3.396 10.812 2.046 3.911 6.894 5.435 10.797 3.396 3.92-2.054 5.443-6.887 3.397-10.812z" fill="inherit"/>
   <path d="m99.091 321.35c-1.394-2.67-4.688-3.708-7.358-2.308-2.67 1.386-3.7 4.688-2.321 7.358 1.407 2.67 4.688 3.715 7.372 2.308 2.669-1.393 3.7-4.68 2.307-7.358z" fill="inherit"/>
   <path d="m131.88 324.04c-1.002-1.923-3.367-2.648-5.269-1.647-1.916 0.994-2.656 3.353-1.654 5.268 0.986 1.916 3.353 2.648 5.254 1.654 1.93-1.001 2.67-3.359 1.669-5.275z" fill="inherit"/>
   <path d="m401.39 423.97c-7.778 0-14.092 6.306-14.092 14.084 0 7.786 6.313 14.084 14.092 14.084s14.077-6.298 14.077-14.084c0-7.778-6.298-14.084-14.077-14.084z" fill="inherit"/>
   <path d="m345.73 476.02c-4.427 0-8.011 3.577-8.011 8.003 0 4.419 3.584 8.004 8.011 8.004s8.011-3.584 8.011-8.004c0-4.426-3.584-8.003-8.011-8.003z" fill="inherit"/>
   <path d="m361.93 403.29c-3.019 0-5.457 2.438-5.457 5.449 0 3.019 2.438 5.464 5.457 5.464 3.004 0 5.442-2.445 5.442-5.464 0-3.011-2.438-5.449-5.442-5.449z" fill="inherit"/>
   <path d="m344.35 434.2c-2.147 0-3.903 1.741-3.903 3.904s1.756 3.904 3.903 3.904c2.163 0 3.919-1.741 3.919-3.904s-1.756-3.904-3.919-3.904z" fill="inherit"/>
   <path d="m202.13 468.3c-3.759-7.213-12.655-10.006-19.868-6.24-7.198 3.758-9.999 12.655-6.24 19.867 3.773 7.198 12.67 10 19.868 6.226 7.213-3.759 9.999-12.647 6.24-19.853z" fill="inherit"/>
   <path d="m293.36 432.38c-8.127 0-14.716 6.596-14.716 14.723 0 8.134 6.589 14.723 14.716 14.723 8.142 0 14.716-6.589 14.716-14.723 0-8.127-6.574-14.723-14.716-14.723z" fill="inherit"/>
   <path d="m170.91 414.88c-2.046-3.918-6.879-5.442-10.797-3.396-3.919 2.046-5.428 6.886-3.382 10.797 2.047 3.926 6.879 5.442 10.798 3.396 3.904-2.046 5.442-6.878 3.381-10.797z" fill="inherit"/>
   <path d="m93.271 422.58c-1.394-2.67-4.688-3.701-7.358-2.315-2.67 1.4-3.715 4.688-2.308 7.365 1.379 2.663 4.688 3.708 7.358 2.314 2.671-1.4 3.701-4.687 2.308-7.364z" fill="inherit"/>
   <path d="m127.22 439.24c-1.001-1.908-3.367-2.648-5.268-1.654-1.916 1.001-2.656 3.36-1.654 5.275 1.001 1.908 3.352 2.648 5.268 1.662 1.916-1.009 2.641-3.367 1.654-5.283z" fill="inherit"/>
   <path d="m87.03 199.62c-2.655-5.123-8.982-7.104-14.105-4.426-5.123 2.663-7.111 8.998-4.441 14.114 2.686 5.115 8.998 7.104 14.121 4.426s7.096-8.991 4.425-14.114z" fill="inherit"/>
   <path d="m136.53 279.36c-3.759-7.213-12.655-10.006-19.868-6.24-7.212 3.759-9.999 12.662-6.24 19.86 3.759 7.22 12.655 10.006 19.868 6.24s9.999-12.647 6.24-19.86z" fill="inherit"/>
   <path d="m139.07 218.96c-2.061-3.918-6.893-5.442-10.797-3.396-3.933 2.046-5.442 6.886-3.396 10.797 2.031 3.918 6.879 5.435 10.797 3.396 3.905-2.046 5.443-6.886 3.396-10.797z" fill="inherit"/>
   <path d="m62.577 240.62c-1.394-2.67-4.688-3.701-7.358-2.315-2.67 1.4-3.7 4.702-2.307 7.365 1.378 2.663 4.688 3.708 7.357 2.315 2.67-1.393 3.702-4.687 2.308-7.365z" fill="inherit"/>
   <path d="m95.361 243.32c-1.002-1.916-3.367-2.656-5.269-1.654-1.915 1.001-2.655 3.367-1.654 5.268 1.001 1.923 3.353 2.656 5.268 1.662 1.916-1.009 2.642-3.36 1.655-5.276z" fill="inherit"/>
   <path d="m451.06 224.62c-7.793 0-14.106 6.313-14.106 14.092 0 7.786 6.313 14.091 14.106 14.091 7.778 0 14.077-6.306 14.077-14.091 0.001-7.779-6.298-14.092-14.077-14.092z" fill="inherit"/>
   <path d="m382.59 261.55c-4.412 0-7.997 3.577-7.997 8.003 0 4.419 3.585 8.011 7.997 8.011 4.426 0 8.011-3.592 8.011-8.011-0.001-4.426-3.585-8.003-8.011-8.003z" fill="inherit"/>
   <path d="m398.79 188.82c-3.019 0-5.456 2.445-5.456 5.457 0 3.019 2.438 5.449 5.456 5.449s5.457-2.431 5.457-5.449c0-3.011-2.438-5.457-5.457-5.457z" fill="inherit"/>
   <path d="m381.23 219.73c-2.148 0-3.904 1.749-3.904 3.904 0 2.162 1.756 3.904 3.904 3.904 2.162 0 3.903-1.742 3.903-3.904 0.001-2.155-1.74-3.904-3.903-3.904z" fill="inherit"/>
   <path d="m317.39 45.438c-7.779 0-14.092 6.313-14.092 14.092s6.312 14.084 14.092 14.084c7.793 0 14.092-6.306 14.092-14.084s-6.299-14.092-14.092-14.092z" fill="inherit"/>
   <path d="m261.73 97.494c-4.426 0-8.011 3.577-8.011 7.996 0 4.426 3.585 8.004 8.011 8.004 4.427 0 8.012-3.578 8.012-8.004 0-4.419-3.585-7.996-8.012-7.996z" fill="inherit"/>
   <path d="m277.91 24.757c-3.004 0-5.442 2.452-5.442 5.457 0 3.011 2.438 5.457 5.442 5.457 3.019 0 5.457-2.445 5.457-5.457 0-3.005-2.438-5.457-5.457-5.457z" fill="inherit"/>
   <path d="m260.35 55.669c-2.148 0-3.904 1.749-3.904 3.911 0 2.155 1.756 3.911 3.904 3.911 2.177 0 3.918-1.756 3.918-3.911 0-2.163-1.741-3.911-3.918-3.911z" fill="inherit"/>
   <path d="m209.37 53.855c-8.141 0-14.729 6.588-14.729 14.723s6.589 14.723 14.729 14.723c8.128 0 14.701-6.589 14.701-14.723s-6.573-14.723-14.701-14.723z" fill="inherit"/>
  </g>
 </g>
</svg>