<?xml version="1.0" encoding="UTF-8"?><svg xmlns="http://www.w3.org/2000/svg" xmlns:xlink="http://www.w3.org/1999/xlink" height="130.0" preserveAspectRatio="xMidYMid meet" version="1.0" viewBox="-0.0 -0.0 130.0 130.0" width="130.0" zoomAndPan="magnify"><g><g><g><g><linearGradient gradientUnits="userSpaceOnUse" id="a" x1="65" x2="65" xlink:actuate="onLoad" xlink:show="other" xlink:type="simple" xmlns:xlink="http://www.w3.org/1999/xlink" y1="36.73" y2="-6.395"><stop offset="0" stop-color="#726eb2"/><stop offset=".996" stop-color="#6355a3"/></linearGradient><path d="M128.975,63.1291c-1.04-35.3402-30.52-63.1403-65.8499-62.1003 c-35.33,1.03-63.1301,30.52-62.1,65.8501c1.04,35.3301,30.5199,63.1301,65.8499,62.0902 C102.2049,127.9391,130.0049,98.459,128.975,63.1291z" fill="url(#a)"/><g id="change1_1"><path d="M111.9443,21.5234c-4.9832,4.4467-11.408,7.0916-17.9662,8.4447 c-6.9304,1.4299-14.0558,1.5416-21.1314,1.6481c14.4908,0.9503,29.1562-0.9667,42.934-5.5507 C114.5715,24.4911,113.2911,22.9765,111.9443,21.5234z" fill="#726EB2"/></g><g><linearGradient gradientUnits="userSpaceOnUse" id="b" x1="35.714" x2="35.714" xlink:actuate="onLoad" xlink:show="other" xlink:type="simple" xmlns:xlink="http://www.w3.org/1999/xlink" y1="134.995" y2="145.209"><stop offset=".004" stop-color="#e6e6e6"/><stop offset="1" stop-color="#f1f1f1"/></linearGradient><path d="M69.9039,76.2611v52.54c-1,0.08-2.01,0.14-3.03,0.17c-33.2,0.98-61.23-23.52-65.35-55.8 l28.49-28.5c2.3-2.29,6.02-2.29,8.31,0L69.9039,76.2611z" fill="url(#b)"/></g><linearGradient gradientUnits="userSpaceOnUse" id="c" x1="107.341" x2="45.844" xlink:actuate="onLoad" xlink:show="other" xlink:type="simple" xmlns:xlink="http://www.w3.org/1999/xlink" y1="48.814" y2="119.556"><stop offset=".004" stop-color="#e6e6e6"/><stop offset="1" stop-color="#f1f1f1"/></linearGradient><path d="M128.975,63.129c-0.375-12.7426-4.4623-24.4938-11.1733-34.2773l-11.5347-1.4902L9.3138,96.5462 c11.3279,19.9544,33.0287,33.1449,57.5612,32.4227C102.205,127.9391,130.0049,98.459,128.975,63.129z" fill="url(#c)"/><g><g><linearGradient gradientTransform="rotate(-16.383 -382.248 -330.147)" gradientUnits="userSpaceOnUse" id="d" x1="-133.082" x2="-104.323" xlink:actuate="onLoad" xlink:show="other" xlink:type="simple" xmlns:xlink="http://www.w3.org/1999/xlink" y1="249.136" y2="206.764"><stop offset="0" stop-color="#fcdebd"/><stop offset=".986" stop-color="#e09183"/></linearGradient><path d="M58.8816,68.7367c1.4856,1.3923,2.282,2.9551,1.191,4.1192 c-0.3482,0.3716-2.5106,2.4327-5.3412,5.0211c-7.3042,6.6792-14.0708,13.899-20.2629,21.6204 c-2.4,2.9927-4.317,5.2843-4.6652,5.6559c-1.091,1.1641-2.702,0.4705-4.1876-0.9218c-1.4856-1.3923-2.282-2.9551-1.191-4.1192 c0.3482-0.3716,2.5109-2.433,5.3419-5.0217c7.3042-6.6792,14.0707-13.899,20.2629-21.6205 c2.3997-2.9923,4.3164-5.2836,4.6647-5.6552C55.7849,66.6508,57.396,67.3443,58.8816,68.7367z" fill="url(#d)"/></g><g><linearGradient gradientTransform="rotate(-12.979 -741.875 -211.017)" gradientUnits="userSpaceOnUse" id="e" x1="-42.886" x2="-35.675" xlink:actuate="onLoad" xlink:show="other" xlink:type="simple" xmlns:xlink="http://www.w3.org/1999/xlink" y1="251.622" y2="251.622"><stop offset="0" stop-color="#383647"/><stop offset=".993" stop-color="#272535"/></linearGradient><path d="M50.0921,80.7977c0,0-0.9572,1.5906-2.8794,3.289c-1.9664,1.7375-3.6092,1.5228-3.6788,0.2773 c-0.1343-2.4032,3.3174-5.3347,3.3174-5.3347L50.0921,80.7977z" fill="url(#e)"/></g><g><g><linearGradient gradientTransform="rotate(-16.383 -382.248 -330.147)" gradientUnits="userSpaceOnUse" id="f" x1="-127.319" x2="-98.559" xlink:actuate="onLoad" xlink:show="other" xlink:type="simple" xmlns:xlink="http://www.w3.org/1999/xlink" y1="253.048" y2="210.675"><stop offset="0" stop-color="#fcdebd"/><stop offset=".986" stop-color="#e09183"/></linearGradient><path d="M62.5597,70.9837c1.6453,1.1995,2.6274,2.6527,1.6876,3.9418 c-0.3,0.4115-2.193,2.7224-4.6846,5.6387c-6.4292,7.5252-12.2585,15.5209-17.4561,23.944 c-2.0145,3.2646-3.6358,5.7742-3.9358,6.1857c-0.9398,1.2892-2.6239,0.7986-4.2691-0.4009 c-1.6453-1.1995-2.6274-2.6527-1.6876-3.9418c0.3-0.4115,2.1933-2.7228,4.6851-5.6394 c6.4292-7.5252,12.2584-15.521,17.4561-23.944c2.0143-3.2642,3.6353-5.7735,3.9353-6.1849 C59.2305,69.2937,60.9145,69.7843,62.5597,70.9837z" fill="url(#f)"/></g><g><linearGradient gradientTransform="rotate(-20.032 -118.817 -398)" gradientUnits="userSpaceOnUse" id="g" x1="-127.518" x2="-120.307" xlink:actuate="onLoad" xlink:show="other" xlink:type="simple" xmlns:xlink="http://www.w3.org/1999/xlink" y1="114.933" y2="114.933"><stop offset="0" stop-color="#383647"/><stop offset=".993" stop-color="#272535"/></linearGradient><path d="M55.3171,84.0323c0,0-0.7547,1.6961-2.4539,3.6175c-1.7383,1.9657-3.395,1.9542-3.6169,0.7267 c-0.4283-2.3685,2.6376-5.7016,2.6376-5.7016L55.3171,84.0323z" fill="url(#g)"/></g></g><g><g><linearGradient gradientTransform="rotate(-16.383 -382.248 -330.147)" gradientUnits="userSpaceOnUse" id="h" x1="-91.515" x2="-72.789" xlink:actuate="onLoad" xlink:show="other" xlink:type="simple" xmlns:xlink="http://www.w3.org/1999/xlink" y1="192.225" y2="171.459"><stop offset=".072" stop-color="#2a3477"/><stop offset=".204" stop-color="#293373"/><stop offset=".989" stop-color="#13163f"/></linearGradient><path d="M55.5484,55.3982c-0.804,1.0109-1.5552,2.297-2.1615,3.9335 c-2.7828,7.5108-7.4763,20.246-7.4763,20.246c-0.0851,0.5875,2.5318,2.8305,3.8519,2.102 c1.9634-1.0836,10.8937-18.278,13.3037-22.0509C59.8592,58.8175,57.2247,57.1993,55.5484,55.3982z" fill="url(#h)"/></g><g><linearGradient gradientTransform="rotate(-16.383 -382.248 -330.147)" gradientUnits="userSpaceOnUse" id="i" x1="-87.975" x2="-62.593" xlink:actuate="onLoad" xlink:show="other" xlink:type="simple" xmlns:xlink="http://www.w3.org/1999/xlink" y1="195.038" y2="172.62"><stop offset=".137" stop-color="#2a3477"/><stop offset=".989" stop-color="#13163f"/></linearGradient><path d="M61.6104,59.1932c-5.6428,8.9029-7.2283,10.1354-8.2459,13.8893l-2.5082,9.2522 c-0.2785,0.4974,2.6212,3.2219,4.0486,2.4505c0.422-0.2281,2.999-5.5163,4.5347-8.7271 c1.8331-3.8327,6.107-5.4234,9.6978-8.7833c4.1049-3.8409,2.6832-6.6244,2.0159-8.8948 C70.9769,58.3958,62.538,59.5139,61.6104,59.1932z" fill="url(#i)"/></g><g><g><linearGradient gradientTransform="rotate(-16.383 -382.248 -330.147)" gradientUnits="userSpaceOnUse" id="j" x1="-45.237" x2="-45.237" xlink:actuate="onLoad" xlink:show="other" xlink:type="simple" xmlns:xlink="http://www.w3.org/1999/xlink" y1="173.071" y2="162.978"><stop offset="0" stop-color="#383647"/><stop offset=".993" stop-color="#272535"/></linearGradient><path d="M81.3471,52.5469c0.6781,1.001,1.4565,2.4524-0.1424,1.8013 c-1.5985-0.6498-2.0348-3.6343-2.0348-3.6343l-1.1977-1.4297c-0.8103-0.9162,1.049-3.7799,2.785-2.7713 c0.6457,0.3749,1.3687,0.8759,2.0242,1.426C82.7814,47.9389,81.0982,52.1778,81.3471,52.5469z" fill="url(#j)"/></g><g><g><g><linearGradient gradientTransform="rotate(97.481 1224.476 -843.026)" gradientUnits="userSpaceOnUse" id="k" x1="2301.097" x2="2301.097" xlink:actuate="onLoad" xlink:show="other" xlink:type="simple" xmlns:xlink="http://www.w3.org/1999/xlink" y1="-794.469" y2="-827.532"><stop offset="0" stop-color="#fff"/><stop offset="1" stop-color="#f1f1f1"/></linearGradient><path d="M22.208 109.8915L28.8724 59.1569 28.2839 59.0796 21.6195 109.8142 21.694 111.5258z" fill="url(#k)"/></g><g id="change2_2"><path d="M29.0574,59.7134l-1.0959-0.1439c-0.1197-0.0157-0.2036-0.1264-0.1881-0.2449l0.8912-6.7843 c0.0276-0.2105,0.1386-0.3903,0.2948-0.5113c0.1572-0.1196,0.3596-0.1804,0.5701-0.1528 c0.4221,0.0554,0.7195,0.4427,0.664,0.8648l-0.8912,6.7843C29.2867,59.6439,29.1771,59.7291,29.0574,59.7134z" fill="#ED5B5A"/></g></g><g><linearGradient gradientUnits="userSpaceOnUse" id="l" x1="22.423" x2="22.423" xlink:actuate="onLoad" xlink:show="other" xlink:type="simple" xmlns:xlink="http://www.w3.org/1999/xlink" y1="111.545" y2="78.482"><stop offset="0" stop-color="#fff"/><stop offset="1" stop-color="#f1f1f1"/></linearGradient><path d="M24.2976,106.2241c-0.1121-0.8588-0.786-1.5698-1.6855-1.688 c-0.8994-0.1181-1.7342,0.3948-2.0642,1.1954L24.2976,106.2241z" fill="url(#l)"/></g></g><g><g><linearGradient gradientTransform="rotate(-16.383 -382.248 -330.147)" gradientUnits="userSpaceOnUse" id="m" x1="-62.09" x2="-62.09" xlink:actuate="onLoad" xlink:show="other" xlink:type="simple" xmlns:xlink="http://www.w3.org/1999/xlink" y1="152.437" y2="153.398"><stop offset="0" stop-color="#49c0b8"/><stop offset=".996" stop-color="#179a91"/></linearGradient><path d="M61.134 43.023L61.132 43.022" fill="none" stroke="url(#m)" stroke-miterlimit="10"/><g><linearGradient gradientTransform="rotate(-16.383 -382.248 -330.147)" gradientUnits="userSpaceOnUse" id="n" x1="-94.678" x2="-94.678" xlink:actuate="onLoad" xlink:show="other" xlink:type="simple" xmlns:xlink="http://www.w3.org/1999/xlink" y1="152.827" y2="159.439"><stop offset="0" stop-color="#383647"/><stop offset=".993" stop-color="#272535"/></linearGradient><path d="M32.7949,57.0143c-1.8637,1.8485-3.4441,2.1389-3.4441,2.1389l0.5555-4.2273 c0,0-0.2302-0.2135-1.098-0.9337c-0.8678-0.7202-0.7908-1.2615-0.292-1.4768c0.4987-0.2153,3.3436,1.7335,3.3436,1.7335 S34.6598,55.1654,32.7949,57.0143z" fill="url(#n)"/></g><g><linearGradient gradientTransform="rotate(-16.383 -382.248 -330.147)" gradientUnits="userSpaceOnUse" id="o" x1="-70.791" x2="-63.49" xlink:actuate="onLoad" xlink:show="other" xlink:type="simple" xmlns:xlink="http://www.w3.org/1999/xlink" y1="153.018" y2="182.864"><stop offset="0" stop-color="#fbaf28"/><stop offset=".996" stop-color="#f4832c"/></linearGradient><path d="M81.9309,47.2022c-0.1971,0.7051-2.2414,3.4752-3.0526,3.4708 c-0.479-0.0029-2.7522-2.0482-4.7711-4.1543c-1.6815-1.7539-3.9096-2.8842-6.3175-3.2116l-0.0384-0.0052 c1.2754,4.6248,3.4409,12.7238,3.5892,14.8724c0.2098,3.0587-7.8824,2.6817-12.5482,2.7968s-4.01-3.6024-5.067-6.29 c-0.711-1.809-2.6326-4.7129-3.8125-6.4171c-1.9251,2.8164-5.3097,7.3512-7.8707,8.5146 c-3.7881,1.7212-9.7336,2.1717-10.4546,1.3714c-0.5966-0.6626-0.614-3.0276-0.3887-4.195 c0.0419-0.2209,0.2171-0.3906,0.4378-0.4313c10.4985-1.9648,8.0259-6.1505,13.6289-13.8983 c0.4984-0.6882,1.5867-1.5624,3.0067-2.4503c-1.6495-1.6867-0.3551-6.3582,3.965-7.8206 c1.614-0.5481,3.6807-0.8491,5.0078,0.4431c0.7609,0.7415,0.6374,2.3417,0.3186,3.459 c0.2218-0.0499,0.4415-0.0942,0.6591-0.1327c3.6637-0.6648,10.3717,1.3359,14.5321,3.2868 C78.0648,38.9024,82.1288,46.4956,81.9309,47.2022z" fill="url(#o)"/></g><g><linearGradient gradientTransform="matrix(.644 -.6882 .5222 .7766 670.684 185.464)" gradientUnits="userSpaceOnUse" id="p" x1="-464.325" x2="-467.976" xlink:actuate="onLoad" xlink:show="other" xlink:type="simple" xmlns:xlink="http://www.w3.org/1999/xlink" y1="-598.475" y2="-607.423"><stop offset="0" stop-color="#fbd2c3"/><stop offset=".996" stop-color="#f8af9b"/></linearGradient><path d="M51.0866,29.4535l-6.0208,3.0531l4.8884,7.2707 c1.0518,1.5645,2.9563,1.7088,4.2536,0.3224c1.2973-1.3864,1.4963-3.7785,0.4444-5.3429L51.0866,29.4535z" fill="url(#p)"/></g><g><linearGradient gradientTransform="rotate(-16.383 -382.248 -330.147)" gradientUnits="userSpaceOnUse" id="q" x1="-74.347" x2="-74.347" xlink:actuate="onLoad" xlink:show="other" xlink:type="simple" xmlns:xlink="http://www.w3.org/1999/xlink" y1="152.887" y2="134.779"><stop offset="0" stop-color="#fbd2c3"/><stop offset=".996" stop-color="#f8af9b"/></linearGradient><path d="M50.844,39.8311c-0.1277,0.293-0.4218,0.4817-0.7409,0.4665 c-5.4639-0.2443-10.763-6.104-10.0625-6.7859l7.7677-6.1503C52.9957,33.3628,51.5016,38.3214,50.844,39.8311z" fill="url(#q)"/></g><g><linearGradient gradientTransform="rotate(-16.383 -382.248 -330.147)" gradientUnits="userSpaceOnUse" id="r" x1="-74.703" x2="-67.974" xlink:actuate="onLoad" xlink:show="other" xlink:type="simple" xmlns:xlink="http://www.w3.org/1999/xlink" y1="134.617" y2="154.464"><stop offset="0" stop-color="#2a3477"/><stop offset=".989" stop-color="#13163f"/></linearGradient><path d="M52.6017,30.636c0.1063,0.7917-1.9926,2.7183-4.1168,0.8711 c-0.6377-0.5548-1.1256-1.0528-1.4966-1.4776c-2.1356,1.971-5.3639,6.5558-5.3639,6.5558s-4.1303-3.4615-3.2489-7.2704 c0.8798-3.8098,4.4464-5.6286,6.8068-5.8786c1.1253-0.1196,2.4564,0.6119,3.5575,1.5402 C49.0771,24.9163,52.4951,29.8431,52.6017,30.636z" fill="url(#r)"/></g><linearGradient gradientTransform="rotate(-16.383 -382.248 -330.147)" gradientUnits="userSpaceOnUse" id="s" x1="-50.622" x2="-50.622" xlink:actuate="onLoad" xlink:show="other" xlink:type="simple" xmlns:xlink="http://www.w3.org/1999/xlink" y1="156.909" y2="157.869"><stop offset="0" stop-color="#49c0b8"/><stop offset=".996" stop-color="#179a91"/></linearGradient><path d="M73.396 44.079L73.395 44.078" fill="none" stroke="url(#s)" stroke-miterlimit="10"/></g><g><g><linearGradient gradientTransform="rotate(-16.383 -382.248 -330.147)" gradientUnits="userSpaceOnUse" id="t" x1="-69.487" x2="-71.683" xlink:actuate="onLoad" xlink:show="other" xlink:type="simple" xmlns:xlink="http://www.w3.org/1999/xlink" y1="137.351" y2="133.87"><stop offset="0" stop-color="#383647"/><stop offset=".993" stop-color="#272535"/></linearGradient><path d="M50.7074,26.5563c-0.1342,0.6002-2.7222,4.4495-2.7222,4.4495l-0.8046,1.9657 l-1.7995-1.7718c0,0,3.2177-5.0375,3.4771-5.5777c0.2578-0.541-0.1185-0.6456-0.1185-0.6456 C48.9837,24.6305,50.8404,25.9565,50.7074,26.5563z" fill="url(#t)"/></g><g><g><linearGradient gradientTransform="rotate(-16.383 -382.248 -330.147)" gradientUnits="userSpaceOnUse" id="u" x1="-80.059" x2="-71.87" xlink:actuate="onLoad" xlink:show="other" xlink:type="simple" xmlns:xlink="http://www.w3.org/1999/xlink" y1="139.488" y2="139.488"><stop offset=".004" stop-color="#e6e6e6"/><stop offset="1" stop-color="#f1f1f1"/></linearGradient><path d="M47.4479,33.9771c-0.5652,1.0092-1.6539,1.4929-2.7055,1.8293 c-0.734,0.2344-0.6999,0.243-0.673,0.916c0.0177,0.4315-0.1543,0.775-0.5655,0.9591 c-0.8399,0.3776-2.1405-0.2456-2.7036-0.8715c-0.7565-0.8391-0.648-1.8577,0.0197-2.6989 c0.648-0.8153,1.5135-1.5063,2.3046-2.1769c0.6256-0.53,1.7484-1.7577,2.5994-1.8484 c0.6784-0.0716,1.3497,0.6777,1.6732,1.2017C47.8929,32.0897,47.9092,33.152,47.4479,33.9771z" fill="url(#u)"/></g><g><linearGradient gradientTransform="rotate(-16.383 -382.248 -330.147)" gradientUnits="userSpaceOnUse" id="v" x1="-74.281" x2="-76.813" xlink:actuate="onLoad" xlink:show="other" xlink:type="simple" xmlns:xlink="http://www.w3.org/1999/xlink" y1="141.942" y2="137.928"><stop offset="0" stop-color="#383647"/><stop offset=".993" stop-color="#272535"/></linearGradient><path d="M47.0871,33.7757c-0.5084,0.9092-1.5345,1.3372-2.4706,1.6368 c-0.8129,0.259-0.9996,0.4058-0.9634,1.2426l0.0031,0.0838c0.0143,0.3664-0.1634,0.4947-0.3207,0.5654 c-0.0332,0.0141-0.0681,0.0272-0.1038,0.0377c-0.6214,0.1826-1.652-0.2843-2.1237-0.8093 c-0.8077-0.8959-0.2441-1.8127,0.0359-2.165c0.5443-0.6842,1.2629-1.289,1.9571-1.8736 c0.098-0.082,0.1947-0.1635,0.2914-0.2451c0.1381-0.1167,0.2982-0.2658,0.4687-0.4236 c0.5192-0.4815,1.2327-1.1422,1.7695-1.3c0.0489-0.0144,0.095-0.0236,0.1366-0.0287 c0.404-0.0426,0.9497,0.4749,1.2785,1.0074C47.4631,32.1815,47.4795,33.073,47.0871,33.7757z" fill="url(#v)"/></g></g></g></g><g><g><g><linearGradient gradientTransform="rotate(-50.437 936.445 -814.3)" gradientUnits="userSpaceOnUse" id="w" x1="-271.904" x2="-219.047" xlink:actuate="onLoad" xlink:show="other" xlink:type="simple" xmlns:xlink="http://www.w3.org/1999/xlink" y1="-921.553" y2="-921.553"><stop offset=".004" stop-color="#e6e6e6"/><stop offset="1" stop-color="#f1f1f1"/></linearGradient><path d="M116.4651 9.283L83.8733 48.7316 84.3309 49.1097 116.9227 9.661 117.7686 8.1712z" fill="url(#w)"/></g><g id="change2_1"><path d="M84.0122,48.1619l0.8521,0.704c0.0931,0.0769,0.1054,0.2153,0.0293,0.3074l-4.3582,5.2752 c-0.1352,0.1636-0.3247,0.2571-0.5213,0.2766c-0.1967,0.0179-0.4005-0.0381-0.5641-0.1733 c-0.3282-0.2712-0.3745-0.7572-0.1033-1.0855l4.3582-5.2752C83.7809,48.0989,83.9191,48.0849,84.0122,48.1619z" fill="#ED5B5A"/></g></g><g><linearGradient gradientUnits="userSpaceOnUse" id="x" x1="112.569" x2="115.662" xlink:actuate="onLoad" xlink:show="other" xlink:type="simple" xmlns:xlink="http://www.w3.org/1999/xlink" y1="12.667" y2="12.667"><stop offset=".004" stop-color="#e6e6e6"/><stop offset="1" stop-color="#f1f1f1"/></linearGradient><path d="M112.7468,11.2806c-0.3611,0.7872-0.1677,1.7476,0.5316,2.3254 c0.6993,0.5778,1.679,0.5865,2.3839,0.0834L112.7468,11.2806z" fill="url(#x)"/></g></g><g><linearGradient gradientTransform="rotate(-16.383 -382.248 -330.147)" gradientUnits="userSpaceOnUse" id="y" x1="-99.167" x2="-96.191" xlink:actuate="onLoad" xlink:show="other" xlink:type="simple" xmlns:xlink="http://www.w3.org/1999/xlink" y1="156.577" y2="156.577"><stop offset="0" stop-color="#383647"/><stop offset=".993" stop-color="#272535"/></linearGradient><path d="M29.1745,55.248c0.2272,1.0802-0.0043,4.0435-1.2093,4.1141 c-1.1164,0.0649-1.833-3.1131-0.3145-5.3485c0.205-0.3018,0.646-0.3285,0.8799-0.0475 C28.7812,54.2688,29.0611,54.7066,29.1745,55.248z" fill="url(#y)"/></g><g><linearGradient gradientTransform="rotate(-16.383 -382.248 -330.147)" gradientUnits="userSpaceOnUse" id="z" x1="-43.452" x2="-43.452" xlink:actuate="onLoad" xlink:show="other" xlink:type="simple" xmlns:xlink="http://www.w3.org/1999/xlink" y1="171.255" y2="163.126"><stop offset="0" stop-color="#383647"/><stop offset=".993" stop-color="#272535"/></linearGradient><path d="M84.5299,50.4941c-0.0107,1.3787-2.5891,2.9148-2.6416,2.3166 c-0.0511-0.5834-0.1377-1.3421-0.788-1.6475l1.681-3.2243C83.8885,48.8709,84.5365,49.627,84.5299,50.4941z" fill="url(#z)"/></g></g></g></g></g><g id="change1_4"><path d="M96.6007,9.3345c-0.2018,0.1397-0.3965,0.2899-0.6014,0.4244 c-2.1784,1.4341-4.5258,2.5947-6.8688,3.7452c2.8269-1.0058,5.5584-2.2722,8.1722-3.7481 C97.067,9.6179,96.8382,9.4696,96.6007,9.3345z" fill="#726EB2" opacity=".5"/></g><g id="change1_5"><path d="M32.2866,9.994c-1.1371,0.6778-2.2473,1.3941-3.3369,2.1388 c13.4758,5.079,28.2252,6.3104,42.0383,3.4792C57.7533,17.2606,44.2655,15.1737,32.2866,9.994z" fill="#726EB2" opacity=".5"/></g></g><g id="change1_2"><path d="M19.3615,34.4711c6.6816,0.2957,13.3426-2.0547,19.4771-4.8338 c-4.8304,2.1277-10.1003,3.2451-15.379,3.2466c1.283-1.2576,2.332-2.8895,2.3484-4.6813c0.0175-1.7987-1.2929-3.665-3.0818-3.7861 c-0.9991-0.0634-1.9787,0.402-2.7115,1.0756c-0.7408,0.6793-1.2679,1.5544-1.746,2.4304 c-0.0101,0.0193-0.0192,0.0319-0.0294,0.0513c-0.453-0.0593-0.9143,0.0624-1.3391,0.218 c-0.4406,0.1671-0.8821,0.3831-1.1727,0.7496c-0.1776,0.2307-0.2819,0.5292-0.2725,0.8182 c-1.4946,0.0518-2.7231-0.0049-3.7775-0.1262c-0.6238,0.9388-1.2241,1.8934-1.7986,2.8658 C12.984,33.5926,16.1726,34.3337,19.3615,34.4711z" fill="#726EB2"/></g><g id="change1_3"><path d="M88.1271,5.3071C87.6189,5.1099,87.1,4.9353,86.5856,4.751 c-2.8372,0.9386-5.7603,1.6321-8.7244,2.1266c-0.1311,0.0217-0.2546,0.0438-0.3781,0.066 c0.0869-0.4974-0.3226-0.9825-0.8073-1.1448c-0.4846-0.1624-1.061-0.2089-1.5187,0.0195C72.2863,7.2334,71.8139,8.1319,65,9.3345 C73.1194,10.0132,81.0319,8.6654,88.1271,5.3071z" fill="#726EB2" opacity=".5"/></g></g><g><linearGradient gradientUnits="userSpaceOnUse" id="A" x1="114.785" x2="114.785" xlink:actuate="onLoad" xlink:show="other" xlink:type="simple" xmlns:xlink="http://www.w3.org/1999/xlink" y1="141.396" y2="83.141"><stop offset=".004" stop-color="#e6e6e6"/><stop offset="1" stop-color="#f1f1f1"/></linearGradient><path d="M128.975,63.129c-0.375-12.7426-4.4623-24.4938-11.1733-34.2773l-11.5347-1.4902 c1.2869,1.9205,6.1948,11.4573,6.3018,16.9762c0.2934,15.1414-16.9052,51.0182-10.6176,65.9976 c0.7771,1.8513,1.6223,3.5287,2.5063,5.0493C119.8978,103.2735,129.5907,84.2498,128.975,63.129z" fill="url(#A)"/></g></g></svg>