<?xml version="1.0" encoding="UTF-8"?><svg xmlns="http://www.w3.org/2000/svg" xmlns:xlink="http://www.w3.org/1999/xlink" height="130.0" preserveAspectRatio="xMidYMid meet" version="1.0" viewBox="-0.0 -0.0 130.0 130.0" width="130.0" zoomAndPan="magnify"><g><g><g><linearGradient gradientTransform="matrix(-1 0 0 1 -709.533 0)" gradientUnits="userSpaceOnUse" id="a" x1="-774.533" x2="-774.533" xlink:actuate="onLoad" xlink:show="other" xlink:type="simple" xmlns:xlink="http://www.w3.org/1999/xlink" y1="89.239" y2="-11.925"><stop offset="0" stop-color="#726eb2"/><stop offset=".996" stop-color="#6355a3"/></linearGradient><path d="M1.025,63.1243C2.065,27.7842,31.5449-0.0158,66.875,1.024c35.33,1.03,63.13,30.52,62.1,65.8502 c-1.04,35.33-30.5199,63.1301-65.8499,62.0901C27.795,127.9345-0.005,98.4543,1.025,63.1243z" fill="url(#a)"/></g><g id="change1_2"><path d="M19.1941,37.7525c-1.7068-0.049-3.4636,0.0045-5.1162,0.2607 c0.0814-0.0989,0.1509-0.2055,0.2085-0.3198c0.4803-0.9699,0.152-2.1884-0.5528-3.0107 c-0.7068-0.8321-1.7102-1.3257-2.7146-1.7272c-0.3905-0.1589-0.8051-0.2973-1.212-0.3571 c-1.4711,2.5006-2.7694,5.1151-3.8961,7.8214c12.1877,0.0698,24.3908-1.9603,35.8695-6.0584 C34.5346,36.931,26.8691,37.9948,19.1941,37.7525z" fill="#726EB2" opacity=".3"/></g><g><g><linearGradient gradientTransform="matrix(-1 0 0 1 -706.017 0)" gradientUnits="userSpaceOnUse" id="b" x1="-835.022" x2="-799.455" xlink:actuate="onLoad" xlink:show="other" xlink:type="simple" xmlns:xlink="http://www.w3.org/1999/xlink" y1="55.485" y2="55.485"><stop offset="0" stop-color="#726eb2"/><stop offset=".996" stop-color="#6355a3"/></linearGradient><path d="M127.1121,65.495V53.9798l-7.3809-7.381c-1.4996-1.4996-3.931-1.4996-5.4307,0L95.4043,65.495 H127.1121z" fill="url(#b)"/><linearGradient gradientTransform="translate(3.516)" gradientUnits="userSpaceOnUse" id="c" x1="117.569" x2="117.569" xlink:actuate="onLoad" xlink:show="other" xlink:type="simple" xmlns:xlink="http://www.w3.org/1999/xlink" y1="70.742" y2="61.066"><stop offset="0" stop-color="#726eb2"/><stop offset=".996" stop-color="#6355a3"/></linearGradient><path d="M118.4758,50.3885c0.2205,4.3362-3.9872,11.4153,1.0509,15.1066h7.5854V53.9798l-7.3809-7.381 c-1.2673-1.2673-3.1983-1.4593-4.6718-0.5845C116.6989,46.7925,118.3612,48.1333,118.4758,50.3885z" fill="url(#c)"/></g><g><g><linearGradient gradientTransform="translate(3.516)" gradientUnits="userSpaceOnUse" id="d" x1="9.318" x2="111.654" xlink:actuate="onLoad" xlink:show="other" xlink:type="simple" xmlns:xlink="http://www.w3.org/1999/xlink" y1="105.825" y2="28.281"><stop offset="0" stop-color="#726eb2"/><stop offset=".996" stop-color="#6355a3"/></linearGradient><path d="M112.8487,65.495l-35.448-35.4481c-3.1001-3.1001-8.1264-3.1002-11.2265-0.0001L30.7259,65.495 H112.8487z" fill="url(#d)"/></g><linearGradient gradientTransform="translate(3.516)" gradientUnits="userSpaceOnUse" id="e" x1="86.779" x2="86.779" xlink:actuate="onLoad" xlink:show="other" xlink:type="simple" xmlns:xlink="http://www.w3.org/1999/xlink" y1="79.955" y2="59.953"><stop offset="0" stop-color="#726eb2"/><stop offset=".996" stop-color="#6355a3"/></linearGradient><path d="M74.8056,37.8808c0.3914,7.6982-5.9681,19.5785-1.1782,27.6143h39.2213L77.4007,30.0469 c-2.6199-2.6199-6.6116-3.0167-9.6577-1.2084C71.1323,30.4473,74.5685,33.219,74.8056,37.8808z" fill="url(#e)"/></g><g><linearGradient gradientTransform="translate(3.516)" gradientUnits="userSpaceOnUse" id="f" x1="51.044" x2="-9.283" xlink:actuate="onLoad" xlink:show="other" xlink:type="simple" xmlns:xlink="http://www.w3.org/1999/xlink" y1="41.661" y2="71.412"><stop offset="0" stop-color="#726eb2"/><stop offset=".996" stop-color="#6355a3"/></linearGradient><path d="M38.6419,65.495L19.7155,46.5686c-1.9124-1.9124-5.0132-1.9125-6.9257,0l-5.9512,5.9512 c-1.1579,4.1733-1.8925,8.5162-2.1789,12.9752H38.6419z" fill="url(#f)"/><linearGradient gradientTransform="translate(3.516)" gradientUnits="userSpaceOnUse" id="g" x1="22.683" x2="22.683" xlink:actuate="onLoad" xlink:show="other" xlink:type="simple" xmlns:xlink="http://www.w3.org/1999/xlink" y1="77.357" y2="65.018"><stop offset="0" stop-color="#726eb2"/><stop offset=".996" stop-color="#6355a3"/></linearGradient><path d="M18.1146,51.4015c0.1971,3.8764-2.3797,9.4716-1.7282,14.0936h22.2554L19.7155,46.5687 c-1.6162-1.6163-4.0787-1.861-5.9578-0.7455C15.8485,46.8157,17.9683,48.5256,18.1146,51.4015z" fill="url(#g)"/></g></g><g><linearGradient gradientTransform="matrix(-1 0 0 1 -709.533 0)" gradientUnits="userSpaceOnUse" id="h" x1="-774.533" x2="-774.533" xlink:actuate="onLoad" xlink:show="other" xlink:type="simple" xmlns:xlink="http://www.w3.org/1999/xlink" y1="96.755" y2="53.456"><stop offset="0" stop-color="#726eb2"/><stop offset=".996" stop-color="#6355a3"/></linearGradient><path d="M128.887,68.5332c-1.8953,34.5391-30.9831,61.4649-65.7596,60.4412 C29.615,127.9975,2.8965,101.4178,1.113,68.5332H128.887z" fill="url(#h)"/></g><g id="change1_3"><path d="M106.8667,16.5975c-0.0545-0.0472-0.1115-0.0916-0.1661-0.1386 c-2.9323,1.5366-6.2079,2.7959-10.5751,3.6983c-0.0593-0.5518-0.4664-1.0522-0.968-1.3197 c-0.5977-0.3312-1.3036-0.4017-1.9891-0.454c-0.3096-0.0204-0.6268-0.0365-0.9288,0.0082 c-0.1296-0.1736-0.2817-0.3344-0.437-0.4833c-0.4454-0.4288-0.9536-0.8116-1.5466-0.9965 c-0.5888-0.1776-1.2729-0.1412-1.7683,0.2232c-0.7211,0.5243-0.8302,1.5602-0.5148,2.4015 c-0.0715,0.0312-0.1312,0.0656-0.1983,0.1042c-1.0892,0.6268-1.4555,2.0093-0.8331,3.091c0.1545,0.2686,0.3527,0.4921,0.587,0.675 c-4.4177,1.7282-9.0049,2.4716-13.6234,3.4713C85.5362,26.3583,97.0023,22.766,106.8667,16.5975z" fill="#726EB2" opacity=".3"/></g><g><linearGradient gradientTransform="matrix(-1 0 0 1 -709.533 0)" gradientUnits="userSpaceOnUse" id="i" x1="-774.536" x2="-774.536" xlink:actuate="onLoad" xlink:show="other" xlink:type="simple" xmlns:xlink="http://www.w3.org/1999/xlink" y1="138.107" y2="99.1"><stop offset="0" stop-color="#726eb2"/><stop offset=".996" stop-color="#6355a3"/></linearGradient><path d="M113.4115,106.861c-12.1526,14.0378-30.2775,22.7023-50.2842,22.1133 c-18.659-0.5439-35.2128-9.0277-46.5334-22.1133H113.4115z" fill="url(#i)"/></g><g id="change1_1"><path d="M27.557,13.1153c7.1812,4.2477,14.9219,7.5505,22.9786,9.7205 c-8.4994-2.0469-16.812-4.855-24.8245-8.352C26.3153,14.0134,26.9359,13.5641,27.557,13.1153z" fill="#726EB2" opacity=".4"/></g><g id="change1_4"><path d="M120.7624,33.584c-10.6251,3.1011-21.8356,4.1893-32.8558,3.1412 c9.5925,0.3305,21.6645-1.4009,31.1969-5.9191C119.68,31.7163,120.2314,32.6437,120.7624,33.584z" fill="#726EB2" opacity=".4"/></g><g id="change1_5"><path d="M80.4106,2.8786c-0.2216-0.0547-0.4386-0.1207-0.6611-0.1731 c-3.2916,0.2324-6.6145,0.0161-9.8448-0.6546c0.1552-0.2568,0.2485-0.5456,0.3128-0.842 c-1.1063-0.0894-2.2205-0.1522-3.3426-0.1849c-2.2003-0.0648-4.3777-0.0171-6.5272,0.1367 c-0.0082,0.062-0.0247,0.1218-0.0211,0.1863c-0.2231-0.0349-0.4578-0.077-0.6909-0.1182 c-2.7363,0.2266-5.4246,0.6265-8.0557,1.1884C61.0319,4.4976,70.8994,4.6685,80.4106,2.8786z" fill="#726EB2" opacity=".4"/></g><g><g id="change1_6"><path d="M80.8084,34.8234c-0.7626,0.1213-1.5295,0.2111-2.2945,0.3149 c0.2113-0.0281,0.4233-0.0444,0.6345-0.0749L80.8084,34.8234z" fill="#726EB2" opacity=".4"/></g></g></g><linearGradient gradientUnits="userSpaceOnUse" id="j" x1="57.993" x2="57.993" xlink:actuate="onLoad" xlink:show="other" xlink:type="simple" xmlns:xlink="http://www.w3.org/1999/xlink" y1="135.9" y2="151.805"><stop offset=".004" stop-color="#e6e6e6"/><stop offset="1" stop-color="#f1f1f1"/></linearGradient><path d="M114.9845,69.8778L3.5132,47.2632C1.8899,52.8987,1.0023,58.846,1.0023,65.0042 c0.0001,35.34,28.66,63.9999,64.0001,63.9999c19.0693,0,36.1783-8.3495,47.9026-21.5792L114.9845,69.8778z" fill="url(#j)"/><linearGradient gradientUnits="userSpaceOnUse" id="k" x1="74.969" x2="74.543" xlink:actuate="onLoad" xlink:show="other" xlink:type="simple" xmlns:xlink="http://www.w3.org/1999/xlink" y1="104.224" y2="40.287"><stop offset=".004" stop-color="#e6e6e6"/><stop offset="1" stop-color="#f1f1f1"/></linearGradient><path d="M65.0023,129.0042c35.35,0,64-28.66,63.9999-64c0-6.3963-0.9501-12.5682-2.696-18.3958 L20.7191,111.1808C32.2182,122.2115,47.8139,129.0042,65.0023,129.0042z" fill="url(#k)"/><linearGradient gradientUnits="userSpaceOnUse" id="l" x1="92.161" x2="94.292" xlink:actuate="onLoad" xlink:show="other" xlink:type="simple" xmlns:xlink="http://www.w3.org/1999/xlink" y1="134.853" y2="64.948"><stop offset=".004" stop-color="#e6e6e6"/><stop offset="1" stop-color="#f1f1f1"/></linearGradient><path d="M65.0023,129.0042c23.9932,0,44.8873-13.2112,55.8441-32.7448 c-3.3049-2.0359-7.3276-4.0751-12.1442-6.0989c-18.8516-0.3271-37.1052,25.486-43.8715,38.8393 C64.8883,129,64.9448,129.0042,65.0023,129.0042z" fill="url(#l)"/><g><g><linearGradient gradientTransform="rotate(16.524 -353.274 -250.508)" gradientUnits="userSpaceOnUse" id="m" x1="158.71" x2="166.153" xlink:actuate="onLoad" xlink:show="other" xlink:type="simple" xmlns:xlink="http://www.w3.org/1999/xlink" y1="-102.353" y2="-102.054"><stop offset="0" stop-color="#383647"/><stop offset=".993" stop-color="#272535"/></linearGradient><path d="M101.6644,40.924c-0.1975,0.1066-1.507-0.5235-2.1171-1.431 c-0.1003-0.1494-0.2578-0.4588-0.2767-0.496c0.0182,0.0619,0.274,0.8975,0.1676,1.1552 c-0.5051,1.2265-1.4544-1.2443-1.4544-1.2443l-2.4876-0.3224l0.4863-3.0623c0,0,4.6052,0.9171,5.7629,1.8793 C103.3726,38.7549,102.0386,40.7221,101.6644,40.924z" fill="url(#m)"/></g><g><linearGradient gradientTransform="matrix(-.5276 -.849 -.8481 .5284 3447.113 2786.07)" gradientUnits="userSpaceOnUse" id="n" x1="4148.342" x2="4155.785" xlink:actuate="onLoad" xlink:show="other" xlink:type="simple" xmlns:xlink="http://www.w3.org/1999/xlink" y1="1426.747" y2="1427.046"><stop offset="0" stop-color="#383647"/><stop offset=".993" stop-color="#272535"/></linearGradient><path d="M43.1176,13.2251c-0.0504,0.2187,0.903,1.3142,1.9384,1.6619 c0.1705,0.0571,0.5101,0.1269,0.551,0.1353c-0.0645-0.0012-0.9369-0.0262-1.1569,0.1447 c-1.0477,0.8123,1.5833,1.0724,1.5833,1.0724l0.9687,2.313l2.8208-1.2809c0,0-2.1018-4.1972-3.3349-5.0583 C44.7547,11.0028,43.213,12.8108,43.1176,13.2251z" fill="url(#n)"/></g><g><g><linearGradient gradientTransform="rotate(16.524 -353.274 -250.508)" gradientUnits="userSpaceOnUse" id="o" x1="143.598" x2="143.598" xlink:actuate="onLoad" xlink:show="other" xlink:type="simple" xmlns:xlink="http://www.w3.org/1999/xlink" y1="-76.081" y2="-98.031"><stop offset="0" stop-color="#2a3477"/><stop offset=".989" stop-color="#13163f"/></linearGradient><path d="M84.7059,77.0395l-3.7372,0.3788L69.4589,56.3821l-5.9237,6.0203l-2.6039,14.0022 l-3.6258,0.0657c-1.152-13.3096-2.3859-14.7008-0.8175-17.523l7.9576-14.3192l14.6135,4.3354L84.7059,77.0395z" fill="url(#o)"/></g><g><linearGradient gradientTransform="rotate(16.524 -353.274 -250.508)" gradientUnits="userSpaceOnUse" id="p" x1="131.557" x2="145.049" xlink:actuate="onLoad" xlink:show="other" xlink:type="simple" xmlns:xlink="http://www.w3.org/1999/xlink" y1="-110.172" y2="-76.685"><stop offset="0" stop-color="#fbaf28"/><stop offset=".996" stop-color="#f4832c"/></linearGradient><path d="M97.1979,39.185c0,0-13.422-1.909-19.9299-2.307c0.7799,3.8037,1.9739,9.9378,2.1885,12.7891 c0.3229,4.2964-13.8252,1.1647-16.6556-0.6807c-2.1324-1.3906-2.3776-10.1457-2.3697-14.3805 c-2.8818-1.7393-9.8709-7.0094-14.5473-17.9683c0.9131-0.7012,1.9524-1.1421,3.1369-1.2836c0,0,5.2852,10.9966,19.1151,11.8447 c6.9032,0.8644,15.7643,3.9819,30.0487,8.6602C98.2737,37.1046,97.9171,38.2042,97.1979,39.185z" fill="url(#p)"/></g><g><g><linearGradient gradientTransform="matrix(-.8939 -.2988 -.0897 .9315 5881.998 635.495)" gradientUnits="userSpaceOnUse" id="q" x1="6366.478" x2="6363.741" xlink:actuate="onLoad" xlink:show="other" xlink:type="simple" xmlns:xlink="http://www.w3.org/1999/xlink" y1="1395.804" y2="1389.096"><stop offset="0" stop-color="#fbd2c3"/><stop offset=".996" stop-color="#f8af9b"/></linearGradient><path d="M67.1482,23.2016l5.0589-0.1349l-0.6292,6.5376c-0.1354,1.4067-1.3395,2.1813-2.6895,1.73 c-1.3499-0.4513-2.3345-1.9574-2.1991-3.3641L67.1482,23.2016z" fill="url(#q)"/></g><g><linearGradient gradientTransform="scale(-1 1) rotate(12.04 -4699.37 -29750.478)" gradientUnits="userSpaceOnUse" id="r" x1="6036.889" x2="6036.889" xlink:actuate="onLoad" xlink:show="other" xlink:type="simple" xmlns:xlink="http://www.w3.org/1999/xlink" y1="-1585.954" y2="-1599.528"><stop offset="0" stop-color="#fbd2c3"/><stop offset=".996" stop-color="#f8af9b"/></linearGradient><path d="M71.0103,29.9572c0.1887,0.1476,0.45,0.1671,0.655,0.0433 c3.5153-2.1103,4.9187-7.8641,4.2136-8.0638l-7.3156-1.2839C67.2841,26.4602,70.0382,29.1964,71.0103,29.9572z" fill="url(#r)"/></g><g><linearGradient gradientTransform="scale(-1 1) rotate(12.04 -4699.37 -29750.478)" gradientUnits="userSpaceOnUse" id="s" x1="6036.622" x2="6041.666" xlink:actuate="onLoad" xlink:show="other" xlink:type="simple" xmlns:xlink="http://www.w3.org/1999/xlink" y1="-1599.65" y2="-1584.772"><stop offset="0" stop-color="#2a3477"/><stop offset=".989" stop-color="#13163f"/></linearGradient><path d="M66.5711,24.5218c0.2124,0.5599,2.2835,1.0814,3.0251-0.8943 c0.2225-0.5933,0.3666-1.0957,0.4596-1.5081c2.1112,0.5377,5.8754,2.4088,5.8754,2.4088s1.4883-3.7557-0.4516-5.9526 c-1.9392-2.198-4.9396-2.1248-6.5851-1.4476c-0.7846,0.3226-1.4013,1.2798-1.7961,2.2846 C66.8545,19.4933,66.3585,23.9609,66.5711,24.5218z" fill="url(#s)"/></g><g><g><linearGradient gradientTransform="scale(-1 1) rotate(12.04 -4699.37 -29750.478)" gradientUnits="userSpaceOnUse" id="t" x1="6040.532" x2="6038.886" xlink:actuate="onLoad" xlink:show="other" xlink:type="simple" xmlns:xlink="http://www.w3.org/1999/xlink" y1="-1597.601" y2="-1600.21"><stop offset="0" stop-color="#383647"/><stop offset=".993" stop-color="#272535"/></linearGradient><path d="M66.3646,21.1562c0.3026,0.3478,3.3822,1.9625,3.3822,1.9625l1.2317,1.009l0.5544-1.8102 c0,0-3.9186-2.1735-4.2824-2.4371c-0.363-0.2647-0.1522-0.4679-0.1522-0.4679C66.8141,19.2715,66.063,20.8082,66.3646,21.1562 z" fill="url(#t)"/></g><g><g><linearGradient gradientTransform="scale(-1 1) rotate(12.04 -4699.37 -29750.478)" gradientUnits="userSpaceOnUse" id="u" x1="6032.607" x2="6038.746" xlink:actuate="onLoad" xlink:show="other" xlink:type="simple" xmlns:xlink="http://www.w3.org/1999/xlink" y1="-1595.998" y2="-1595.998"><stop offset=".004" stop-color="#e6e6e6"/><stop offset="1" stop-color="#f1f1f1"/></linearGradient><path d="M71.1611,24.886c0.7327,0.4638,1.6231,0.3943,2.4364,0.2409 c0.5676-0.1073,0.5482-0.0894,0.7705,0.3638c0.1423,0.2908,0.3782,0.4559,0.715,0.4306 c0.6884-0.0507,1.3237-0.9255,1.4717-1.5391c0.1994-0.8231-0.2355-1.456-0.9758-1.7724 c-0.7181-0.3063-1.5353-0.4532-2.2961-0.6131c-0.6015-0.1263-1.7799-0.5352-2.3733-0.2914 c-0.4729,0.1948-0.6481,0.9283-0.6745,1.3892C70.1944,23.8003,70.5626,24.5066,71.1611,24.886z" fill="url(#u)"/></g><g><linearGradient gradientTransform="scale(-1 1) rotate(12.04 -4699.37 -29750.478)" gradientUnits="userSpaceOnUse" id="v" x1="6036.938" x2="6035.04" xlink:actuate="onLoad" xlink:show="other" xlink:type="simple" xmlns:xlink="http://www.w3.org/1999/xlink" y1="-1594.159" y2="-1597.168"><stop offset="0" stop-color="#383647"/><stop offset=".993" stop-color="#272535"/></linearGradient><path d="M71.3271,24.6246c0.6596,0.4181,1.4888,0.3342,2.2128,0.1978 c0.6284-0.1192,0.8039-0.089,1.0785,0.4756l0.0279,0.0564c0.1213,0.2467,0.2842,0.2679,0.4132,0.2583 c0.0269-0.0026,0.0546-0.0064,0.0819-0.0122c0.4748-0.1013,0.9878-0.7768,1.1115-1.2912 c0.2129-0.8788-0.4858-1.2822-0.796-1.4146c-0.603-0.2569-1.2925-0.3993-1.9588-0.5371 c-0.0939-0.0191-0.1867-0.0384-0.2795-0.0576c-0.1327-0.0277-0.2914-0.0688-0.4602-0.1121 c-0.5141-0.1323-1.2203-0.3133-1.6305-0.2259c-0.0374,0.008-0.0711,0.0183-0.1003,0.0298 c-0.2816,0.116-0.4567,0.6519-0.4836,1.1203C70.5105,23.7076,70.8177,24.3012,71.3271,24.6246z" fill="url(#v)"/></g></g></g></g><g><linearGradient gradientTransform="rotate(16.524 -353.274 -250.508)" gradientUnits="userSpaceOnUse" id="w" x1="97.524" x2="173.362" xlink:actuate="onLoad" xlink:show="other" xlink:type="simple" xmlns:xlink="http://www.w3.org/1999/xlink" y1="-43.354" y2="-66.667"><stop offset="0" stop-color="#fcdebd"/><stop offset=".986" stop-color="#e09183"/></linearGradient><path d="M92.4553,78.794c-8.7999,0.9401-34.8856,0.8529-41.0811,0.0405 c-6.194-0.8119-5.3426-2.8467-5.3426-2.8467c-0.2457-2.3602,20.3393,1.9298,42.9491-0.9076 c4.7673-0.5988,13.8574-4.9602,14.2579-2.584C103.6376,74.8721,101.2537,77.8535,92.4553,78.794z" fill="url(#w)"/></g></g></g><linearGradient gradientUnits="userSpaceOnUse" id="x" x1="46.577" x2="44.027" xlink:actuate="onLoad" xlink:show="other" xlink:type="simple" xmlns:xlink="http://www.w3.org/1999/xlink" y1="140.756" y2="75.055"><stop offset=".004" stop-color="#e6e6e6"/><stop offset="1" stop-color="#f1f1f1"/></linearGradient><path d="M44.3656,73.4903c-9.9152,3.6161-25.2234,8.2313-39.8495,12.4223 c8.6691,25.0724,32.4704,43.0916,60.4863,43.0916c7.3268,0,14.3582-1.2477,20.9139-3.5144 C79.31,106.5714,62.9531,66.7114,44.3656,73.4903z" fill="url(#x)"/></g></svg>