<?xml version="1.0" encoding="UTF-8"?><svg xmlns="http://www.w3.org/2000/svg" xmlns:xlink="http://www.w3.org/1999/xlink" height="128.0" preserveAspectRatio="xMidYMid meet" version="1.0" viewBox="1.0 1.0 128.0 128.0" width="128.0" zoomAndPan="magnify"><g><g><g><linearGradient gradientUnits="userSpaceOnUse" id="a" x1="65" x2="65" xlink:actuate="onLoad" xlink:show="other" xlink:type="simple" xmlns:xlink="http://www.w3.org/1999/xlink" y1="43.181" y2=".319"><stop offset="0" stop-color="#ed5b5a"/><stop offset=".993" stop-color="#e24026"/></linearGradient><path d="M65,1C29.65,1,1,29.65,1,65c0,35.34,28.65,63.9999,64,63.9999c35.35,0,64-28.6599,64-64 C129,29.65,100.35,1,65,1z" fill="url(#a)"/><linearGradient gradientUnits="userSpaceOnUse" id="b" x1="65" x2="65" xlink:actuate="onLoad" xlink:show="other" xlink:type="simple" xmlns:xlink="http://www.w3.org/1999/xlink" y1="60.256" y2="16.146"><stop offset="0" stop-color="#ed5b5a"/><stop offset=".993" stop-color="#e24026"/></linearGradient><path d="M120.1918,97.3896C125.7814,87.886,129,76.8209,129,65c0-6.3509-0.9385-12.4798-2.6606-18.2709 c-2.6383-0.0342-5.2786,0.1873-7.8699,0.6997c-6.5259,1.2905-13.1147,4.2527-19.5695,2.6441 c-5.1542-1.2845-9.1808-5.2783-14.059-7.3807c-6.6127-2.8498-14.2307-2.0008-21.2014-0.1953 c-6.9706,1.8055-13.7534,4.5197-20.911,5.3066c-11.2172,1.2332-22.3298-2.3438-33.506-3.906 c-1.4646-0.2047-2.9673-0.3613-4.4842-0.4766C2.3239,50.1638,1,57.4261,1,65c0,11.8209,3.2186,22.886,8.8081,32.3896H120.1918z" fill="url(#b)"/><linearGradient gradientUnits="userSpaceOnUse" id="c" x1="65" x2="65" xlink:actuate="onLoad" xlink:show="other" xlink:type="simple" xmlns:xlink="http://www.w3.org/1999/xlink" y1="74.833" y2="9.654"><stop offset="0" stop-color="#ed5b5a"/><stop offset=".993" stop-color="#e24026"/></linearGradient><path d="M120.1918,97.3896C125.7814,87.886,129,76.8209,129,65c0-1.2805-0.0484-2.5492-0.1226-3.811 c-3.4762-0.2672-6.985-0.0793-10.408,0.5975c-6.5259,1.2905-13.1147,4.2527-19.5695,2.644 c-5.1542-1.2845-9.1808-5.2783-14.059-7.3806C78.2282,54.2,70.6102,55.049,63.6395,56.8546 c-6.9706,1.8055-13.7534,4.5197-20.911,5.3065c-11.2172,1.2332-22.3298-2.3437-33.506-3.906 c-2.5215-0.3525-5.1455-0.5825-7.7848-0.6447C1.1588,60.0365,1,62.4991,1,65c0,11.8209,3.2186,22.886,8.8081,32.3896H120.1918z" fill="url(#c)"/><linearGradient gradientUnits="userSpaceOnUse" id="d" x1="64.728" x2="64.728" xlink:actuate="onLoad" xlink:show="other" xlink:type="simple" xmlns:xlink="http://www.w3.org/1999/xlink" y1="97.693" y2="7.229"><stop offset="0" stop-color="#ed5b5a"/><stop offset=".993" stop-color="#e24026"/></linearGradient><path d="M121.6975,77.4273c-6.9199,1.3684-13.9065,4.5095-20.7509,2.8036 c-5.4654-1.3621-9.7351-5.597-14.9077-7.8262c-7.012-3.0219-15.0899-2.1216-22.4814-0.2072 c-7.3915,1.9146-14.5837,4.7925-22.1735,5.627c-11.8943,1.3076-23.6779-2.4852-35.5287-4.1419 c-1.4102-0.1971-2.8553-0.3475-4.3123-0.4669C5.5781,104.6742,32.4365,129,65,129c31.3479,0,57.4089-22.5443,62.9121-52.2921 C125.8267,76.7874,123.7476,77.0219,121.6975,77.4273z" fill="url(#d)"/><linearGradient gradientUnits="userSpaceOnUse" id="e" x1="88.784" x2="88.784" xlink:actuate="onLoad" xlink:show="other" xlink:type="simple" xmlns:xlink="http://www.w3.org/1999/xlink" y1="133.635" y2="126.06"><stop offset=".004" stop-color="#e6e6e6"/><stop offset="1" stop-color="#f1f1f1"/></linearGradient><path d="M48.5684,95.7257c14.7843,13.6386,31.9349,22.1619,48.3821,24.719 C116.1028,109.3833,129,88.7017,129,65c0-1.8691-0.0974-3.7147-0.2543-5.543c-14.4222,2.2529-30.043,7.0077-45.4359,14.2852 C69.8576,80.102,58.1018,87.666,48.5684,95.7257z" fill="url(#e)"/><linearGradient gradientUnits="userSpaceOnUse" id="f" x1="57.691" x2="57.691" xlink:actuate="onLoad" xlink:show="other" xlink:type="simple" xmlns:xlink="http://www.w3.org/1999/xlink" y1="132.466" y2="138.372"><stop offset=".004" stop-color="#e6e6e6"/><stop offset="1" stop-color="#f1f1f1"/></linearGradient><path d="M2.6336,79.3414C9.1474,107.7754,34.5843,129,65,129c18.9849,0,36.0291-8.2738,47.7489-21.4017 C98.0589,96.6245,72.9296,86.961,43.5631,82.1947C29.0321,79.8363,15.1057,78.9437,2.6336,79.3414z" fill="url(#f)"/><g id="change1_2" opacity=".5"><path d="M56.8345,14.5974c-8.202-0.4326-16.3329-2.0991-24.0581-4.8873 c-0.6334,0.3699-1.2596,0.7499-1.8788,1.1407C39.2784,13.4433,48.0625,14.7349,56.8345,14.5974z" fill="#ED5B5A"/></g><g id="change1_4"><path d="M109.9673,19.4684c-0.685-0.6765-1.3826-1.3401-2.0974-1.9855 c-1.4457,0.9056-3.0005,1.6838-4.4787,2.1844c0.1-0.09,0.17-0.22,0.2-0.35c0.11-0.41-0.09-0.87-0.4301-1.13 c-0.39-0.3-0.95-0.34-1.4-0.14c-0.01-0.4301-0.13-0.84-0.36-1.2c-0.58-0.88-1.76-1.3-2.78-1.05c-1.02,0.25-1.84,1.14-2.08,2.16 c-0.19,0.8-0.03,1.66,0.38,2.37c-2.3,1.23-6.75,2.42-9.39,2.43C95.4263,22.9499,101.4107,22.8434,109.9673,19.4684z" fill="#ED5B5A" opacity=".5"/></g><g><g id="change1_5"><path d="M17.6178,21.9743c4.8945,2.0009,22.5771,5.0166,26.2388,5.4617 c-3.6396-0.9527-18.9243-4.5886-20.9208-5.0996c-1.5065-0.378-3.011-0.7867-4.5101-1.2101 C18.1579,21.4104,17.8804,21.6853,17.6178,21.9743z" fill="#ED5B5A" opacity=".5"/></g><g id="change1_1"><path d="M53.7657,36.3218c-7.383,1.6954-15.1201,1.8354-22.5537,0.4125 c-1.2389-0.2371-2.4723-0.5139-3.7013-0.8203c4.2273,0.4609,8.4813,0.7338,12.7438,0.8058 C44.7588,36.796,49.2715,36.6713,53.7657,36.3218z" fill="#ED5B5A"/></g></g><g><g><g><g><g><g><g><linearGradient gradientTransform="rotate(90 1626.65 19.672)" gradientUnits="userSpaceOnUse" id="g" x1="1655.905" x2="1693.346" xlink:actuate="onLoad" xlink:show="other" xlink:type="simple" xmlns:xlink="http://www.w3.org/1999/xlink" y1="1595.951" y2="1595.951"><stop offset=".004" stop-color="#e6e6e6"/><stop offset="1" stop-color="#f1f1f1"/></linearGradient><path d="M50.5813 85.1757L50.5814 48.9297 50.1609 48.9297 50.1609 85.1757 50.3711 86.3709z" fill="url(#g)"/></g><g id="change2_2"><path d="M50.803,49.8768h-0.8638c-0.0944,0-0.1707-0.0772-0.1707-0.1707l0-5.3478 c0-0.1659,0.0677-0.3165,0.1764-0.4262c0.1096-0.1087,0.2603-0.1764,0.4262-0.1764c0.3328,0,0.6026,0.2698,0.6026,0.6026 l0,5.3478C50.9737,49.7996,50.8974,49.8768,50.803,49.8768z" fill="#2A3477"/></g></g><g id="change3_1"><path d="M51.7105,82.4073c-0.1579-0.5928-0.6968-1.03-1.3394-1.03c-0.6426,0-1.1815,0.4372-1.3394,1.03 H51.7105z" fill="#FFF"/></g></g></g><g><g><g><g><linearGradient gradientTransform="rotate(73.303 1692.701 81.846)" gradientUnits="userSpaceOnUse" id="h" x1="1187.798" x2="1225.239" xlink:actuate="onLoad" xlink:show="other" xlink:type="simple" xmlns:xlink="http://www.w3.org/1999/xlink" y1="1661.56" y2="1661.56"><stop offset=".004" stop-color="#e6e6e6"/><stop offset="1" stop-color="#f1f1f1"/></linearGradient><path d="M45.1603 86.8669L34.745 52.1494 34.3423 52.2703 44.7575 86.9877 45.3023 88.072z" fill="url(#h)"/></g><g id="change2_1"><path d="M35.2295,52.9929l-0.8274,0.2482c-0.0904,0.0271-0.1857-0.0249-0.2125-0.1144l-1.5367-5.1223 c-0.0477-0.1589-0.0261-0.3226,0.0465-0.4589c0.0738-0.1356,0.1986-0.2437,0.3575-0.2914 c0.3187-0.0956,0.6547,0.0853,0.7503,0.404l1.5367,5.1223C35.3708,52.8699,35.3199,52.9658,35.2295,52.9929z" fill="#2A3477"/></g></g><g id="change3_2"><path d="M45.4463,83.8907c-0.3216-0.5224-0.9634-0.7863-1.5789-0.6017 c-0.6155,0.1846-1.006,0.7583-0.987,1.3714L45.4463,83.8907z" fill="#FFF"/></g></g></g></g></g></g></g><g id="change1_3"><path d="M56.6878,9.7285c1.5474-0.4163,2.4948-2.3415,1.8707-3.825 c-0.6181-1.4811-2.6498-2.163-4.0392-1.354c-0.2477,0.1459-0.4761,0.3486-0.631,0.5947 c-0.2318,0.0191-0.4601,0.0817-0.6727,0.1575c-0.4167,0.1481-0.8312,0.3603-1.0972,0.709 c-0.1451,0.187-0.2335,0.4248-0.2494,0.6566c-0.1376-0.0762-0.3006-0.1415-0.4865-0.2021 c-1.9498-0.6534-3.8181-1.5022-5.5663-2.5374c-0.7899,0.2478-1.5703,0.5166-2.3466,0.7939 c0.9788,0.8075,2.019,1.5433,3.0942,2.1929c7.1253,4.3156,15.9912,5.6718,24.0887,3.6859 C65.9813,10.927,61.2793,10.6314,56.6878,9.7285z" fill="#ED5B5A" opacity=".35"/></g></g><g><g><linearGradient gradientTransform="rotate(-7.319 1903.57 -361.546)" gradientUnits="userSpaceOnUse" id="i" x1="59.55" x2="54.135" xlink:actuate="onLoad" xlink:show="other" xlink:type="simple" xmlns:xlink="http://www.w3.org/1999/xlink" y1="-167.774" y2="-167.774"><stop offset="0" stop-color="#383647"/><stop offset=".993" stop-color="#272535"/></linearGradient><path d="M97.921,70.5844c-1.9362,0.8378-1.2607-1.6623-2.1962-2.9124 c-0.0079,0.5795,0.0154,1.3197,0.141,1.8209c0.2277,0.9019-1.6,2.0255-1.7393-1.7064c-0.1376-3.7342-0.3761-6.2161-0.3761-6.2161 l2.9433-0.5913l2.0435,3.9919C98.7371,64.971,100.9938,69.2586,97.921,70.5844z" fill="url(#i)"/></g><g><linearGradient gradientTransform="scale(-1 1) rotate(-7.319 186.5 26485.512)" gradientUnits="userSpaceOnUse" id="j" x1="3314.465" x2="3309.05" xlink:actuate="onLoad" xlink:show="other" xlink:type="simple" xmlns:xlink="http://www.w3.org/1999/xlink" y1="250.296" y2="250.296"><stop offset="0" stop-color="#383647"/><stop offset=".993" stop-color="#272535"/></linearGradient><path d="M54.7187,70.5844c1.9362,0.8378,1.2607-1.6623,2.1962-2.9124 c0.0079,0.5795-0.0154,1.3197-0.141,1.8209c-0.2277,0.9019,1.6,2.0255,1.7394-1.7064c0.1376-3.7342,0.3761-6.2161,0.3761-6.2161 l-2.9433-0.5913l-2.0435,3.9919C53.9026,64.971,51.6459,69.2586,54.7187,70.5844z" fill="url(#j)"/></g><g><linearGradient gradientUnits="userSpaceOnUse" id="k" x1="80.326" x2="72.382" xlink:actuate="onLoad" xlink:show="other" xlink:type="simple" xmlns:xlink="http://www.w3.org/1999/xlink" y1="23.387" y2="23.387"><stop offset="0" stop-color="#fbd2c3"/><stop offset=".996" stop-color="#f8af9b"/></linearGradient><path d="M72.382 19.025H80.32600000000001V27.747999999999998H72.382z" fill="url(#k)"/></g><g><linearGradient gradientTransform="rotate(180 1804.591 -613.383)" gradientUnits="userSpaceOnUse" id="l" x1="3525.727" x2="3539.932" xlink:actuate="onLoad" xlink:show="other" xlink:type="simple" xmlns:xlink="http://www.w3.org/1999/xlink" y1="-1241.656" y2="-1241.656"><stop offset="0" stop-color="#383647"/><stop offset=".993" stop-color="#272535"/></linearGradient><path d="M69.4702,11.5102c-1.0606,5.8739,1.8017,11.446,6.8832,11.446 c5.0951,0,7.9591-5.6019,6.8746-11.493C82.0856,5.2573,70.5955,5.2779,69.4702,11.5102z" fill="url(#l)"/></g><g><g><linearGradient gradientUnits="userSpaceOnUse" id="m" x1="88.802" x2="88.802" xlink:actuate="onLoad" xlink:show="other" xlink:type="simple" xmlns:xlink="http://www.w3.org/1999/xlink" y1="125.516" y2="124.137"><stop offset="0" stop-color="#2a3477"/><stop offset=".989" stop-color="#13163f"/></linearGradient><path d="M93.3214,116.6489c0,1.0678-1.1229,0.8807-4.9431,0.8807H85.064 c-0.4314,0-0.7811-0.3497-0.7811-0.7811v-4.1951C86.4297,112.0581,93.3214,114.5351,93.3214,116.6489z" fill="url(#m)"/></g><g><linearGradient gradientTransform="matrix(-1 0 0 1 -729.25 0)" gradientUnits="userSpaceOnUse" id="n" x1="-793.147" x2="-793.147" xlink:actuate="onLoad" xlink:show="other" xlink:type="simple" xmlns:xlink="http://www.w3.org/1999/xlink" y1="125.516" y2="124.137"><stop offset="0" stop-color="#2a3477"/><stop offset=".989" stop-color="#13163f"/></linearGradient><path d="M59.3776,117.2986c0,1.0678,1.1229,0.8807,4.9431,0.8807h3.3143 c0.4314,0,0.7811-0.3497,0.7811-0.7811v-4.1951C66.2693,112.7078,59.3776,115.1848,59.3776,117.2986z" fill="url(#n)"/></g><g><linearGradient gradientUnits="userSpaceOnUse" id="o" x1="76.35" x2="76.35" xlink:actuate="onLoad" xlink:show="other" xlink:type="simple" xmlns:xlink="http://www.w3.org/1999/xlink" y1="110.245" y2="63.412"><stop offset="0" stop-color="#2a3477"/><stop offset=".989" stop-color="#13163f"/></linearGradient><path d="M64.6513,63.9768l-1.1863,49.7106c1.9354,1.1848,3.8047,1.3591,5.5755,0.1919l7.3129-36.2542 l7.3129,36.2542c1.8126,1.1069,5.2444,1.2607,5.5697-1.8416l-1.1864-47.869L64.6513,63.9768z" fill="url(#o)"/></g><g><linearGradient gradientUnits="userSpaceOnUse" id="p" x1="76.353" x2="76.353" xlink:actuate="onLoad" xlink:show="other" xlink:type="simple" xmlns:xlink="http://www.w3.org/1999/xlink" y1="67.5" y2="22.283"><stop offset="0" stop-color="#fbaf28"/><stop offset=".996" stop-color="#f4832c"/></linearGradient><path d="M98.2134,63.4916c0,0.6157-3.1789,1.845-4.2637,1.646c-0.488-0.09-3.0282-5.7485-5.6542-11.5891 c0.3099,5.5579,0.3455,11.4656-0.4356,12.2655c-2.1704,2.2326-20.8089,2.2628-23.0086,0 c-0.7811-0.8-0.7455-6.7076-0.4377-12.2655c-2.6282,5.8406-5.1621,11.4991-5.6563,11.5891 c-1.0806,0.1989-4.2637-1.0303-4.2637-1.646s4.2637-25.1698,7.9181-31.869c1.4659-2.6868,4.1716-4.048,6.8961-4.7391 c0.0398-2.5444,3.1789-4.6009,7.0448-4.6009c3.8679,0,7.0071,2.0565,7.0468,4.6009c2.7266,0.6911,5.4323,2.0523,6.8961,4.7391 C93.9497,38.3218,98.2134,62.8759,98.2134,63.4916z" fill="url(#p)"/></g><g><g><linearGradient gradientUnits="userSpaceOnUse" id="q" x1="84.823" x2="84.823" xlink:actuate="onLoad" xlink:show="other" xlink:type="simple" xmlns:xlink="http://www.w3.org/1999/xlink" y1="76.014" y2="61.56"><stop offset="0" stop-color="#383647"/><stop offset=".993" stop-color="#272535"/></linearGradient><path d="M86.6301,28.0353c-1.0953,3.332-1.2491,7.5986-0.9068,12.3577l-2.1989-0.4398 c-0.7177-4.8771-0.761-9.3005,0.2806-12.9943C84.0476,26.3223,86.8726,27.3987,86.6301,28.0353z" fill="url(#q)"/></g><g><linearGradient gradientTransform="matrix(-1 0 0 1 3500.093 0)" gradientUnits="userSpaceOnUse" id="r" x1="3432.207" x2="3432.207" xlink:actuate="onLoad" xlink:show="other" xlink:type="simple" xmlns:xlink="http://www.w3.org/1999/xlink" y1="76.014" y2="61.56"><stop offset="0" stop-color="#383647"/><stop offset=".993" stop-color="#272535"/></linearGradient><path d="M66.0784,28.0353c1.0953,3.332,1.2491,7.5986,0.9068,12.3577l2.1989-0.4398 c0.7177-4.8771,0.761-9.3005-0.2806-12.9943C68.6609,26.3223,65.8359,27.3987,66.0784,28.0353z" fill="url(#r)"/></g></g><g><g><g><g><linearGradient gradientUnits="userSpaceOnUse" id="s" x1="76.355" x2="76.355" xlink:actuate="onLoad" xlink:show="other" xlink:type="simple" xmlns:xlink="http://www.w3.org/1999/xlink" y1="76.113" y2="61.629"><stop offset="0" stop-color="#383647"/><stop offset=".993" stop-color="#272535"/></linearGradient><path d="M92.1754,47.9511v8.9283c0,1.4863-1.211,2.7083-2.7083,2.7083h-1.0018 c-4.2441,6.4779-19.6411,6.7091-24.187,0h-1.0458c-1.4863,0-2.6972-1.222-2.6972-2.7083v-8.9283 c0-0.6165,0.4954-1.1119,1.1119-1.1119h3.7651c-0.362-1.6396-0.6073-5.312-0.1321-8.6201 c0.4624-3.3137,1.7835-6.4623,5.0422-7.8055c1.8652-0.7578,8.0792-0.769,8.8182-0.6826 c3.2037,0.3523,6.044,1.7945,7.3321,4.7889c1.5193,3.545,1.7174,8.5761,0.8257,12.3192 C89.5058,47.0634,92.1754,46.168,92.1754,47.9511z" fill="url(#s)"/></g></g></g><g><linearGradient gradientUnits="userSpaceOnUse" id="t" x1="76.354" x2="76.354" xlink:actuate="onLoad" xlink:show="other" xlink:type="simple" xmlns:xlink="http://www.w3.org/1999/xlink" y1="43.005" y2="64.151"><stop offset="0" stop-color="#383647"/><stop offset=".993" stop-color="#272535"/></linearGradient><path d="M66.5164,51.125c-0.2043,0.803-0.3135,1.644-0.3135,2.5106c0,5.6064,4.5449,7.75,10.1513,7.75 s10.1514-2.1435,10.1514-7.75c0-0.8666-0.1092-1.7076-0.3135-2.5106C79.7488,49.4846,73.1847,49.5635,66.5164,51.125z" fill="url(#t)"/></g></g></g></g></g></svg>